<?xml version="1.0" encoding="UTF-8" standalone="no"?>
<svg
   xmlns:dc="http://purl.org/dc/elements/1.1/"
   xmlns:cc="http://creativecommons.org/ns#"
   xmlns:rdf="http://www.w3.org/1999/02/22-rdf-syntax-ns#"
   xmlns:svg="http://www.w3.org/2000/svg"
   xmlns="http://www.w3.org/2000/svg"
   viewBox="0 0 3178.6667 2245.3333"
   height="2245.3333"
   width="3178.6667"
   xml:space="preserve"
   id="svg2"
   version="1.1"><metadata
     id="metadata8"><rdf:RDF><cc:Work
         rdf:about=""><dc:format>image/svg+xml</dc:format><dc:type
           rdf:resource="http://purl.org/dc/dcmitype/StillImage" /></cc:Work></rdf:RDF></metadata><defs
     id="defs6" /><g
     transform="matrix(1.3333333,0,0,-1.3333333,0,2245.3333)"
     id="g10"><g
       transform="scale(0.1)"
       id="g12"><g
         transform="scale(1.27252)"
         id="g14"><path
           id="path16"
           style="fill:#c4ecf7;fill-opacity:1;fill-rule:nonzero;stroke:none"
           d="m 15586.5,2918.85 c 713.5,1259.86 213.9,3181.24 -973.9,4045.95 -1136.6,827.42 -2184.4,163.9 -3232.4,1019.36 -1216.8,993.33 -335.9,2322.04 -1442.06,3394.84 -1060.33,1028.4 -3399.59,1290.8 -5107.5,323.3 C 3042.96,10689.6 2305.56,8532.43 3208.25,6637 1695.18,6153.2 563.85,5196.22 504.283,4158.2 405.862,2443.42 3284.15,1405.16 3858.69,1197.94 5450.3,623.801 6781.91,742.384 9016.43,966.508 12815.9,1347.64 14809.8,1547.63 15586.5,2918.85" /></g><path
         id="path18"
         style="fill:#f9caaa;fill-opacity:1;fill-rule:nonzero;stroke:none"
         d="m 11382.2,12537.4 c 88.2,302.1 -108,416.3 -335.8,387 l 162,-727.7 c 9,14.7 17.9,29.4 26.9,44 57.6,94.5 115.9,190.4 146.9,296.7" /><path
         id="path20"
         style="fill:#040302;fill-opacity:1;fill-rule:nonzero;stroke:none"
         d="M 12074.9,5447.3 8616.22,4703.2 c -335.15,-72.1 -666.28,136.5 -739.62,466 l -1753.7,7878.4 c -73.34,329.5 138.89,655 474.03,727.1 l 3458.67,744.1 c 335.2,72.1 666.3,-136.5 739.7,-466 L 12549,6174.4 c 73.3,-329.5 -138.9,-655 -474.1,-727.1" /><path
         id="path22"
         style="fill:#ffffff;fill-opacity:1;fill-rule:nonzero;stroke:none"
         d="M 11998.8,5606.6 8617.74,4879.3 c -253.85,-54.7 -504.67,103.4 -560.22,352.9 l -1743.45,7832.4 c -55.55,249.6 105.2,496.2 359.06,550.8 l 3380.97,727.3 c 253.9,54.6 504.7,-103.4 560.3,-352.9 l 1743.4,-7832.4 c 55.5,-249.6 -105.2,-496.2 -359,-550.8" /><path
         id="path24"
         style="fill:#3c2415;fill-opacity:1;fill-rule:nonzero;stroke:none"
         d="m 8772.55,12133.9 c 0,-427.6 -390.87,-774.3 -873.03,-774.3 -482.16,0 -873.03,346.7 -873.03,774.3 0,427.6 390.87,774.3 873.03,774.3 482.16,0 873.03,-346.7 873.03,-774.3" /><path
         id="path26"
         style="fill:#3c2415;fill-opacity:1;fill-rule:nonzero;stroke:none"
         d="m 10753.4,12562.8 c 0,-427.7 -390.9,-774.4 -873.04,-774.4 -482.17,0 -873.04,346.7 -873.04,774.4 0,427.6 390.87,774.3 873.04,774.3 482.14,0 873.04,-346.7 873.04,-774.3" /><path
         id="path28"
         style="fill:#3c2415;fill-opacity:1;fill-rule:nonzero;stroke:none"
         d="m 9444.82,9470.21 c 0,-427.64 -390.87,-774.31 -873.03,-774.31 -482.17,0 -873.04,346.67 -873.04,774.31 0,427.64 390.87,774.29 873.04,774.29 482.16,0 873.03,-346.65 873.03,-774.29" /><path
         id="path30"
         style="fill:#3c2415;fill-opacity:1;fill-rule:nonzero;stroke:none"
         d="m 11363.3,9917.89 c 0,-427.64 -390.8,-774.31 -873,-774.31 -482.2,0 -873.03,346.67 -873.03,774.31 0,427.61 390.83,774.31 873.03,774.31 482.2,0 873,-346.7 873,-774.31" /><path
         id="path32"
         style="fill:#3c2415;fill-opacity:1;fill-rule:nonzero;stroke:none"
         d="m 9880.36,7043.66 c 0,-427.66 -390.88,-774.36 -873.04,-774.36 -482.16,0 -873.03,346.7 -873.03,774.36 0,427.64 390.87,774.31 873.03,774.31 482.16,0 873.04,-346.67 873.04,-774.31" /><path
         id="path34"
         style="fill:#3c2415;fill-opacity:1;fill-rule:nonzero;stroke:none"
         d="m 11959,7405.76 c 0,-427.64 -390.9,-774.26 -873.1,-774.26 -482.1,0 -873,346.62 -873,774.26 0,427.64 390.9,774.31 873,774.31 482.2,0 873.1,-346.67 873.1,-774.31" /><path
         id="path36"
         style="fill:#3c2415;fill-opacity:1;fill-rule:nonzero;stroke:none"
         d="m 9010.56,10754.4 -1501.78,-359.7 -90.9,379.6 1501.77,359.7 90.91,-379.6" /><path
         id="path38"
         style="fill:#3c2415;fill-opacity:1;fill-rule:nonzero;stroke:none"
         d="m 9611.73,8244.35 -1501.77,-359.68 -90.91,379.55 1501.78,359.68 90.9,-379.55" /><path
         id="path40"
         style="fill:#3c2415;fill-opacity:1;fill-rule:nonzero;stroke:none"
         d="m 10161.5,5729.4 -1501.79,-359.6 -90.9,379.5 1501.79,359.7 90.9,-379.6" /><path
         id="path42"
         style="fill:#3c2415;fill-opacity:1;fill-rule:nonzero;stroke:none"
         d="m 11645.4,8720.28 -1501.8,-359.68 -90.9,379.55 1501.8,359.68 90.9,-379.55" /><path
         id="path44"
         style="fill:#3c2415;fill-opacity:1;fill-rule:nonzero;stroke:none"
         d="m 12242.4,6227.8 -1501.8,-359.7 -90.9,379.6 1501.8,359.7 90.9,-379.6" /><path
         id="path46"
         style="fill:#3c2415;fill-opacity:1;fill-rule:nonzero;stroke:none"
         d="m 10965.7,11222.7 -1501.74,-359.7 -90.91,379.6 1501.75,359.7 90.9,-379.6" /><path
         id="path48"
         style="fill:#f9caaa;fill-opacity:1;fill-rule:nonzero;stroke:none"
         d="m 8616.21,4703.2 c -335.13,-72.1 -666.27,136.5 -739.61,466 l -536.08,2408.32 c -12.51,605.72 -140.8,1197.73 -392.33,1762.51 l -228.22,1025.27 c -14.71,226.3 -49.06,449.8 -144.98,651.3 -11.96,25.2 -24.58,50 -38.53,74.4 -56.35,98.6 -118.88,198 -212.21,262.6 -91.25,63.1 -249.04,100 -314.72,-1.1 -59.06,-91 -28.16,-288 -26.16,-390.7 14.05,-721.8 -164.77,-1413.36 -206.74,-2129.81 -14.48,-247.02 15.41,-494.16 35.5,-740.8 26.97,-331.09 36.27,-663.36 45.56,-995.43 10.57,-377.76 21.15,-755.46 31.72,-1133.26 3.47,-124.2 6.86,-249.6 -16.6,-371.6 -40.19,-209 -156.17,-394.7 -275.58,-570.9 C 5327.77,4622.4 2488.6,285.902 2488.6,285.902 h 4537.89 c 0,0 480.99,2769.398 584.63,2971.398 200.79,391.5 412.74,796.5 763.29,1062.4 98.99,75.1 207,137.3 314.68,199.3 184.82,106.4 369.62,212.7 554.44,319.1 l -627.32,-134.9" /><path
         id="path50"
         style="fill:#f9caaa;fill-opacity:1;fill-rule:nonzero;stroke:none"
         d="m 11762.7,9712.89 c 4.2,5.69 8.1,11.68 12.8,16.97 99.8,112.49 207.6,182.64 361,134.72 82.6,-25.8 155.2,-76.67 219.6,-134.45 99.9,-89.65 169.3,-199.68 156.2,-339.08 -9.9,-107.11 -59.8,-206.57 -118.8,-296.56 -112.9,-172.47 -232.2,-352.94 -383.2,-495.06 l -105.7,475.18 -9.7,43.67 c -4.1,2.17 -8.2,4.14 -12.3,6.48 -178.4,103.65 -241.6,424.8 -119.9,588.13" /><path
         id="path52"
         style="fill:#efb289;fill-opacity:1;fill-rule:nonzero;stroke:none"
         d="m 11904.6,9074.61 -9.7,43.67 c 64.6,-34.25 136.5,-47.11 207.9,-31.52 -62.6,-24.62 -133,-28.48 -198.2,-12.15" /><path
         id="path54"
         style="fill:#f9caaa;fill-opacity:1;fill-rule:nonzero;stroke:none"
         d="m 11451.9,11110.1 c 1.6,1.8 2.9,3.9 4.5,5.7 106.1,115.2 220.2,187.4 381.3,140 86.7,-25.5 162.8,-76.5 230,-134.6 104.4,-90.2 176.5,-201.4 161.6,-343.1 -11.5,-108.9 -64.9,-210.4 -127.7,-302.3 -117.9,-172.6 -242.4,-352.9 -398.1,-497.11 l -104.6,470.41 -8.9,39.9 c -8.8,4.1 -17.5,8.4 -26,13.1 -191.2,106.2 -253.9,444.9 -112.1,608" /><path
         id="path56"
         style="fill:#efb289;fill-opacity:1;fill-rule:nonzero;stroke:none"
         d="m 11598.9,10449.1 -8.9,39.9 c 64.3,-29.3 135,-39 205.4,-23.6 -62.2,-24 -131.4,-29.1 -196.5,-16.3" /><path
         id="path58"
         style="fill:#f9caaa;fill-opacity:1;fill-rule:nonzero;stroke:none"
         d="m 11812.8,8346.46 c 25.8,85.83 95.7,152.91 174.8,195.06 10.6,5.62 21.3,10.79 32.1,15.69 70.6,31.87 147.2,49.61 223,66.81 169,38.33 278.4,-43.41 385.7,-171.1 47.7,-56.68 89.5,-121.99 99.2,-195.42 12.9,-97.22 -31.9,-192.34 -81.9,-276.68 -104.6,-176.28 -238.3,-335.11 -393.4,-469.06 l -57.8,259.57 -14.7,66.23 c -37.7,5.54 -74.7,16.48 -109.2,32.65 -86.9,40.79 -158.1,111.53 -207.3,194.01 -50.4,84.51 -78.8,188.01 -50.5,282.24" /><path
         id="path60"
         style="fill:#efb289;fill-opacity:1;fill-rule:nonzero;stroke:none"
         d="m 12350.8,7853.61 c -43,-41.5 -98,-69.47 -156.3,-82.28 l -14.7,66.23 c 57.5,-8.45 116.6,-4.03 171,16.05" /><path
         id="path62"
         style="fill:#f59f8e;fill-opacity:1;fill-rule:nonzero;stroke:none"
         d="m 12010.3,8599.43 1.3,-5.73 c -4.2,-1.74 -8.3,-3.49 -12.5,-5.24 3.8,3.54 7.4,7.38 11.2,10.97" /><path
         id="path64"
         style="fill:#cca78d;fill-opacity:1;fill-rule:nonzero;stroke:none"
         d="m 6869.09,4864.4 c -0.6,0 -1.21,0.1 -1.82,0.2 -397.46,102.9 -755.49,350.9 -991.64,686.7 -2.31,3.3 -1.52,7.8 1.76,10.1 1.28,0.9 2.73,1.4 4.18,1.4 2.28,0 4.53,-1.1 5.95,-3.1 234.08,-333 589.35,-579 983.39,-681 3.89,-1 6.22,-5 5.22,-8.8 -0.85,-3.3 -3.81,-5.5 -7.04,-5.5" /><path
         id="path66"
         style="fill:#cca78d;fill-opacity:1;fill-rule:nonzero;stroke:none"
         d="m 8243.37,4256.6 c -0.51,0 -1.02,0.1 -1.54,0.2 -280.71,60.3 -534.95,234.6 -692.46,474.6 -2.2,3.4 -1.27,7.9 2.08,10.1 1.23,0.8 2.61,1.2 3.98,1.2 2.37,0 4.69,-1.2 6.08,-3.3 155.31,-236.8 406.51,-408.9 683.37,-468.4 3.93,-0.8 6.42,-4.7 5.58,-8.6 -0.73,-3.4 -3.74,-5.8 -7.09,-5.8" /><path
         id="path68"
         style="fill:#ea8c7d;fill-opacity:1;fill-rule:nonzero;stroke:none"
         d="m 5849.22,9258.53 c 105.97,-7.95 210.69,-32.5 309.15,-72.47 3.71,-1.51 7.95,0.28 9.46,4 1.51,3.72 -0.28,7.96 -4,9.46 -99.86,40.54 -206.04,65.44 -313.52,73.5 -4,0.3 -7.49,-2.7 -7.79,-6.71 -0.3,-4 2.7,-7.48 6.7,-7.78" /><path
         id="path70"
         style="fill:#fdc220;fill-opacity:1;fill-rule:nonzero;stroke:none"
         d="m 11117.8,7489.24 c -87.9,-25.77 -204,-23.81 -290.5,6.8 -91.4,32.35 -153.3,116.32 -205.7,197.89 -3,4.61 -6.3,9.51 -11.4,11.45 -4.2,1.58 -8.9,0.88 -13.3,0.08 -27.9,-5.05 -55.3,-13.02 -81.6,-23.74 -2.7,-1.1 -5.6,-2.25 -8.4,-1.38 -2.7,0.83 -4.5,3.32 -6,5.65 -23.9,35.37 -49.3,68.51 -72.3,104.4 -7.2,11.21 -14.5,22.65 -18,35.49 -12,43.99 22.3,85.92 54.1,118.66 36.4,-58.88 72.7,-117.75 109,-176.62 -41.9,83.97 -80.8,169.42 -116.8,256.13 37.9,20.68 81.3,31.02 124.4,29.66 33.6,-84.37 67.1,-168.75 100.7,-253.12 -15.7,58.7 -31.4,117.4 -47.1,176.1 -1.6,6.06 -3.2,12.6 -1,18.48 2.2,5.92 7.8,9.81 13.1,13.33 19.2,12.79 38.4,25.57 57.6,38.37 28.2,-63.33 56.4,-126.66 84.7,-189.99 -30.4,101.06 -60.7,202.11 -91.1,303.17 -2.9,9.92 -6,20.33 -4,30.52 2.3,11.37 10.4,20.61 18.5,28.83 21.8,21.94 46.3,41.13 72.9,56.97 26.6,-90.78 53.2,-181.57 79.8,-272.36 -6.3,72.28 -12.7,144.55 -19,216.83 28.1,-1.46 55.9,-8.9 80.9,-21.7 7.5,-3.84 15.1,-8.51 19.1,-15.9 3.9,-7.01 3.9,-15.4 3.9,-23.4 0.2,-91.86 11,-183.7 32,-273.13 2.5,68.71 4.9,137.43 7.4,206.14 21.5,11.62 43,23.24 64.5,34.86 5.4,2.88 11,6.07 13.7,11.48 3.8,7.52 0.6,16.43 -1.2,24.63 -9.2,41.1 23.5,86.48 65.4,90.75 32.1,-86 60.4,-173.48 84.6,-262.06 -1.8,52.28 -3.5,104.56 -5.2,156.85 -0.3,8.54 -0.3,17.99 5.3,24.46 4.4,4.99 11.1,7.02 17.5,8.84 24.4,6.92 48.8,13.85 73.2,20.79 11.6,-102.47 27.4,-204.48 47.1,-305.68 7.2,75.26 14.4,150.52 21.5,225.77 18,-3.6 36,-7.2 54,-10.81 1.9,20.67 3.8,41.32 5.7,61.98 0.5,6.24 1.3,12.96 5.6,17.55 3.5,3.82 8.8,5.39 13.8,6.8 19.9,5.59 39.8,11.17 59.6,16.76 -3.8,-105.85 -10.4,-211.59 -19.6,-317.11 -33.8,-3.01 -67.2,-11.74 -98.1,-25.7 -5.5,-2.47 -11.1,-5.25 -14.8,-9.94 -5.4,-6.88 -5.8,-16.33 -6.2,-25.1 -7.4,-154.16 -110.2,-305.27 -258.3,-348.73" /><path
         id="path72"
         style="fill:#e32219;fill-opacity:1;fill-rule:nonzero;stroke:none"
         d="m 11406.5,7824.55 c -8.9,-111.73 -57.8,-219.23 -135.9,-296.45 -52.3,-51.82 -122.7,-91.03 -197.2,-108.64 -74.9,-15.22 -155.3,-9.17 -224.6,15.91 -103.2,37.38 -192.7,114.43 -247.6,212.15 -41.8,-9.41 -83.5,-18.82 -125.2,-28.23 109.3,-303.8 239.5,-599.91 389.2,-885.29 24.7,-12.1 49,-25.2 72.7,-39.3 39.7,41.4 95.4,67.9 150.5,85.5 39,12.5 78.9,21.7 119.2,28.8 39.6,10.5 79.7,18.8 120.3,23.9 57.5,7.1 119.1,6.4 172.5,-14.6 15.6,22.78 32.2,44.86 49.6,66.21 16.2,321.89 10.1,645.27 -18,966.91 -41.8,-8.96 -83.7,-17.9 -125.5,-26.87" /><path
         id="path74"
         style="fill:#d7613b;fill-opacity:1;fill-rule:nonzero;stroke:none"
         d="m 8418.83,11522.1 c -13.27,0 -26.77,2.3 -39.92,7.3 -444.03,168.5 -853.26,436.8 -1183.45,776 -43.39,44.6 -42.43,115.9 2.14,159.3 44.55,43.4 115.84,42.4 159.24,-2.2 307.42,-315.8 688.47,-565.6 1101.96,-722.5 58.15,-22.1 87.4,-87.1 65.34,-145.2 -17.07,-45 -59.88,-72.7 -105.31,-72.7" /><path
         id="path76"
         style="fill:#ffe9bd;fill-opacity:1;fill-rule:nonzero;stroke:none"
         d="m 8269,11359.6 c -20.87,0 -42.08,3.7 -62.75,11.6 -423.09,160.5 -813.04,416.2 -1127.69,739.4 -68.17,70 -66.67,182.1 3.36,250.2 70.02,68.2 182.05,66.7 250.24,-3.3 278.86,-286.5 624.53,-513.1 999.65,-655.4 91.37,-34.7 137.34,-136.9 102.67,-228.3 -26.83,-70.7 -94.09,-114.2 -165.48,-114.2" /><path
         id="path78"
         style="fill:#fbb03b;fill-opacity:1;fill-rule:nonzero;stroke:none"
         d="m 8480.69,11635.5 -1.05,0.1 c -38.39,2 -60.78,31.7 -80.55,58 -12,15.9 -23.34,31 -37.17,39.8 -19.66,12.6 -46.26,13.4 -74.41,14.3 -35.24,1.1 -75.19,2.3 -104.2,30.1 -14.66,14 -22.68,31.3 -30.44,48.1 -6.86,14.8 -13.34,28.8 -23.58,37.7 -16.79,14.5 -41.47,14.9 -70.02,15.4 -27.93,0.4 -56.8,0.9 -82.85,15.2 -33.27,18.3 -49.94,52.8 -64.64,83.3 l -1.27,2.6 c -10.11,20.9 -21.52,42.2 -39.68,52.2 -14.68,8.1 -33.57,8.8 -53.6,9.4 -5.74,0.2 -11.47,0.4 -17.13,0.8 -36.85,2.3 -66.6,12.5 -88.4,30.3 -24.9,20.3 -38.05,48.5 -50.77,75.8 -12.11,26 -23.55,50.6 -43.81,64.6 -17.96,12.4 -42.18,16 -67.8,19.8 -35.3,5.3 -71.8,10.8 -97.5,40 -17.29,19.6 -23.44,43.7 -29.38,66.9 -5.19,20.4 -10.1,39.5 -22.09,52.1 -14.47,15.1 -38.14,19.6 -63.22,24.4 -27.98,5.3 -56.93,10.8 -79.93,31.2 -7.98,7 -8.72,19.2 -1.65,27.2 7.07,8 19.26,8.7 27.25,1.7 15.05,-13.4 37.64,-17.7 61.55,-22.2 28.54,-5.4 60.88,-11.6 83.88,-35.6 19.02,-19.9 25.71,-46.1 31.62,-69.2 5.03,-19.7 9.79,-38.3 20.96,-51 16.38,-18.7 43.18,-22.7 74.21,-27.3 28.85,-4.3 58.69,-8.8 84.02,-26.3 28.91,-19.9 43.13,-50.4 56.89,-80 11.38,-24.4 22.13,-47.5 40.16,-62.2 15.44,-12.6 37.8,-19.9 66.46,-21.7 5.28,-0.3 10.62,-0.5 15.99,-0.7 22.57,-0.7 48.17,-1.6 70.94,-14.2 28.1,-15.5 43.54,-43.8 55.8,-69.2 l 1.27,-2.7 c 12.79,-26.4 26,-53.8 48.45,-66.2 17.66,-9.7 40.6,-10 64.89,-10.4 31.53,-0.5 67.27,-1.1 94.69,-24.9 16.49,-14.3 25.43,-33.6 33.33,-50.6 6.53,-14.1 12.71,-27.4 22.11,-36.4 18.31,-17.6 47.63,-18.5 78.68,-19.4 32.14,-1 65.38,-2 94.02,-20.4 19.69,-12.5 33.68,-31.1 47.22,-49.1 16.81,-22.3 31.33,-41.6 51.76,-42.7 10.65,-0.6 18.81,-9.7 18.25,-20.3 -0.56,-10.3 -9.08,-18.3 -19.26,-18.3" /><path
         id="path80"
         style="fill:#d7613b;fill-opacity:1;fill-rule:nonzero;stroke:none"
         d="m 8524.94,11995.5 c -11.31,0 -22.8,2 -33.99,6.3 -377.97,143.4 -726.32,371.8 -1007.39,660.5 -36.93,38 -36.11,98.7 1.82,135.6 37.93,36.9 98.61,36.1 135.55,-1.8 261.69,-268.8 586.05,-481.5 938.03,-615.1 49.49,-18.7 74.39,-74.1 55.62,-123.6 -14.54,-38.3 -50.98,-61.9 -89.64,-61.9" /><path
         id="path82"
         style="fill:#ffe9bd;fill-opacity:1;fill-rule:nonzero;stroke:none"
         d="m 8397.39,11857.2 c -17.77,0 -35.82,3.2 -53.41,9.9 -360.15,136.6 -692.08,354.3 -959.92,629.4 -58.03,59.6 -56.76,155 2.85,213 59.61,58 154.97,56.8 213.02,-2.8 237.37,-243.9 531.61,-436.8 850.92,-558 77.79,-29.5 116.92,-116.4 87.4,-194.2 -22.83,-60.2 -80.1,-97.3 -140.86,-97.3" /><path
         id="path84"
         style="fill:#fbb03b;fill-opacity:1;fill-rule:nonzero;stroke:none"
         d="m 8577.59,12092.1 h -0.9 c -32.67,1.8 -51.73,27.1 -68.56,49.4 -10.21,13.6 -19.87,26.4 -31.64,33.9 -16.74,10.7 -39.38,11.4 -63.34,12.2 -30,0.9 -64,2 -88.7,25.6 -12.48,12 -19.31,26.7 -25.91,40.9 -5.84,12.7 -11.36,24.6 -20.08,32.1 -14.29,12.4 -35.29,12.7 -59.6,13.1 -23.77,0.4 -48.35,0.8 -70.52,13 -28.33,15.6 -42.51,44.9 -55.03,70.9 l -1.07,2.2 c -8.62,17.8 -18.32,35.9 -33.78,44.5 -12.49,6.9 -28.58,7.4 -45.62,8 -4.9,0.1 -9.77,0.3 -14.59,0.6 -31.37,2 -56.69,10.7 -75.25,25.8 -21.19,17.3 -32.39,41.3 -43.22,64.6 -10.3,22.1 -20.04,43 -37.29,54.9 -15.29,10.6 -35.9,13.6 -57.71,16.9 -30.05,4.5 -61.12,9.1 -83,34 -14.72,16.7 -19.94,37.2 -25.01,57 -4.41,17.3 -8.59,33.7 -18.8,44.3 -12.31,12.9 -32.47,16.7 -53.81,20.8 -23.83,4.5 -48.47,9.2 -68.04,26.5 -6.8,6.1 -7.42,16.5 -1.41,23.2 6.02,6.8 16.4,7.5 23.2,1.4 12.81,-11.3 32.04,-15 52.4,-18.8 24.28,-4.7 51.82,-9.9 71.39,-30.3 16.19,-16.9 21.89,-39.3 26.92,-58.9 4.28,-16.8 8.33,-32.7 17.84,-43.5 13.94,-15.8 36.76,-19.2 63.17,-23.2 24.56,-3.7 49.95,-7.5 71.52,-22.3 24.61,-17 36.72,-43 48.43,-68.1 9.69,-20.9 18.83,-40.5 34.18,-53 13.14,-10.7 32.18,-16.9 56.58,-18.5 4.49,-0.3 9.04,-0.4 13.6,-0.6 19.22,-0.6 41.01,-1.4 60.39,-12 23.92,-13.3 37.06,-37.4 47.5,-59 l 1.09,-2.2 c 10.87,-22.6 22.12,-45.9 41.24,-56.4 15.03,-8.2 34.56,-8.6 55.23,-8.9 26.84,-0.4 57.27,-0.9 80.6,-21.1 14.04,-12.2 21.66,-28.6 28.37,-43.1 5.57,-12.1 10.82,-23.4 18.83,-31.1 15.58,-14.9 40.54,-15.7 66.97,-16.5 27.36,-0.8 55.65,-1.7 80.04,-17.3 16.75,-10.7 28.67,-26.5 40.19,-41.8 14.31,-19 26.67,-35.4 44.06,-36.3 9.06,-0.5 16.01,-8.3 15.53,-17.3 -0.47,-8.8 -7.72,-15.6 -16.39,-15.6" /><path
         id="path86"
         style="fill:#aae0e0;fill-opacity:1;fill-rule:nonzero;stroke:none"
         d="m 10452.8,11888.9 c -50.5,47.2 -138,62.8 -222.5,70.6 -10.7,1 -22.1,2.4 -31.3,5.7 -4.3,-2.9 -9.3,-5.2 -14.9,-6.7 l -44,-11.8 -63.5,-17 -63.5,-17 -43.99,-11.8 c -5.59,-1.5 -11.08,-2 -16.24,-1.6 -6.28,-7.5 -15.49,-14.4 -24.23,-20.6 -69.34,-49.1 -137.29,-106.3 -157.42,-172.4 -3.92,-12.9 -5.87,-26.3 -1,-37.9 8.77,-20.8 37.65,-31.5 66.79,-35.5 33.97,-4.8 70.46,-2.8 106.54,1.5 67.75,8 134.45,23.8 200.95,42.1 66.7,17.3 132.3,37.1 195,64 33.4,14.3 66,30.8 93,51.9 23.3,18.1 42.9,41.8 40.1,64.2 -1.6,12.5 -10,23.1 -19.8,32.3" /><path
         id="path88"
         style="fill:#ffebed;fill-opacity:1;fill-rule:nonzero;stroke:none"
         d="m 9201.39,13386.8 -57.17,-28.1 286.91,-393.6 57.17,28.1 -286.91,393.6" /><path
         id="path90"
         style="fill:#8a0022;fill-opacity:1;fill-rule:nonzero;stroke:none"
         d="m 9201.39,13386.8 -57.17,-28.1 38.65,-53 28.78,67 -10.26,14.1" /><path
         id="path92"
         style="fill:#8a0022;fill-opacity:1;fill-rule:nonzero;stroke:none"
         d="m 9260.65,13305.5 -28.77,-67 39.66,-54.4 28.78,67 -39.67,54.4" /><path
         id="path94"
         style="fill:#8a0022;fill-opacity:1;fill-rule:nonzero;stroke:none"
         d="m 9409.73,12994.5 21.4,-29.4 57.17,28.1 -49.79,68.3 -28.78,-67" /><path
         id="path96"
         style="fill:#8a0022;fill-opacity:1;fill-rule:nonzero;stroke:none"
         d="m 9349.74,13183.3 -28.78,-67 37.77,-51.9 28.78,67.1 -37.77,51.8" /><path
         id="path98"
         style="fill:#fffbfb;fill-opacity:1;fill-rule:nonzero;stroke:none"
         d="m 10157.9,13148.2 c -33.2,24.5 -78.8,39.5 -128.4,42.2 -11.3,40.3 -61.75,68.2 -118.95,65.8 -22.71,31.3 -65.54,52.5 -115.01,56.7 -28.27,2.5 -58.41,-0.7 -87.26,-8.6 -28.9,-7.6 -56.62,-19.9 -79.87,-36.1 -40.7,-28.5 -67.22,-68.2 -71.22,-106.7 -50.76,-26.5 -80.49,-75.9 -70.11,-116.5 -41.63,-27.1 -73.65,-62.9 -90.17,-100.7 -13.27,-30.4 -16.05,-63.9 3.93,-87.9 6.37,-7.6 14.75,-13.8 24.22,-19 3.3,-1.8 6.67,-3.6 10.24,-5.2 -0.55,2.5 -1.07,5 -1.61,7.5 l 372.35,99.8 372.36,99.7 c 0.8,-2.4 1.6,-4.8 2.3,-7.3 2.3,3.2 4.4,6.4 6.3,9.7 5.6,9.2 9.8,18.7 11.5,28.5 5.3,30.8 -13.9,58.4 -40.6,78.1" /><path
         id="path100"
         style="fill:#ff9fac;fill-opacity:1;fill-rule:nonzero;stroke:none"
         d="m 10180.7,13031.9 c -0.7,2.5 -1.5,4.9 -2.3,7.3 l -372.36,-99.7 -372.35,-99.8 c 0.54,-2.5 1.06,-5 1.61,-7.5 34.73,-156 88.15,-307.5 161.21,-451.5 76.11,-150 167.81,-300.2 321.52,-408.7 1.62,-1.2 3.25,-2.3 4.88,-3.4 6.95,-4.9 14.06,-9.6 21.2,-14.2 3.01,1.4 6.18,2.8 9.65,3.7 l 107.54,28.8 107.5,28.8 c 3.5,1 6.9,1.4 10.2,1.6 3.9,7.6 7.7,15.3 11.3,22.9 0.8,1.8 1.7,3.6 2.5,5.4 78.9,170.8 83.2,346.8 74.1,514.8 -8.7,161.2 -38.2,319.1 -86.2,471.5" /><path
         id="path102"
         style="fill:#aae0e0;fill-opacity:1;fill-rule:nonzero;stroke:none"
         d="m 10213.4,11983.1 0.4,1.6 c 0.3,1.1 0.5,2.3 0.5,3.5 l 0.1,1.5 c 0,1.6 -0.2,3.3 -0.6,4.9 l -1.2,4.7 c -0.5,1.7 -1.2,3.2 -2,4.7 l -1.1,1.5 -2,2.5 -1.7,1.7 -2.1,1.6 c -0.8,0.5 -1.7,1.1 -2.6,1.6 l -1.6,0.8 c -6.9,3.3 -15.6,4.6 -24.9,3.2 -1.9,-0.3 -3.8,-0.6 -5.8,-1.2 l -107.5,-28.8 -107.54,-28.8 c -1.96,-0.5 -3.81,-1.2 -5.61,-1.9 -8.73,-3.5 -15.66,-8.9 -19.95,-15.2 l -1.02,-1.5 c -0.53,-0.9 -0.98,-1.8 -1.4,-2.7 l -0.99,-2.4 -0.69,-2.3 c -0.26,-1.1 -0.38,-2.2 -0.48,-3.2 l -0.15,-1.8 c 0,-1.7 0.17,-3.4 0.62,-5.1 l 1.26,-4.7 c 0.43,-1.6 1.12,-3.1 1.93,-4.5 l 0.82,-1.3 c 0.65,-1 1.38,-1.9 2.19,-2.8 l 1.14,-1.2 c 1.12,-1.1 2.35,-2 3.71,-2.9 l 2.24,-1.2 2.3,-1.1 c 0.98,-0.4 1.98,-0.8 3.02,-1.1 l 1.8,-0.5 c 4.88,-1.4 10.3,-1.9 16.02,-1.3 h 0.37 c 2.71,0.3 5.45,0.7 8.22,1.5 l 43.99,11.8 63.5,17 63.5,17 44,11.8 c 2.8,0.7 5.4,1.7 7.9,2.8 l 0.3,0.2 c 5.2,2.4 9.7,5.5 13.3,9.1 l 1.3,1.3 2,2.5 1.4,2.2 1.4,2.1 c 0.7,1.4 1.3,2.9 1.7,4.4" /><path
         id="path104"
         style="fill:#de3435;fill-opacity:1;fill-rule:nonzero;stroke:none"
         d="m 9815.72,13315.7 c 5.62,4.7 11.95,9.2 19.49,11.4 13.51,4.1 26.78,-0.1 39.98,-1.6 16.09,-1.8 33.87,0.5 49.86,6.6 5.3,2 10.52,4.5 16.11,5.4 7.23,1.1 14.2,-0.5 19.86,-3.1 17.62,-8.2 24.05,-25.2 24.61,-41.8 0.94,-27.4 -11.65,-56.7 -34.89,-81.1 -21.46,16.3 -50.57,25.8 -83.09,27.4 -6.95,0.3 -92.54,-7.5 -90.77,-11.4 -13.18,29.2 8.83,63.4 38.84,88.2" /><path
         id="path106"
         style="fill:#636929;fill-opacity:1;fill-rule:nonzero;stroke:none"
         d="m 9894.52,13326.2 c -0.05,1.4 -0.07,2.9 -0.07,4.3 -0.01,57 33.19,118.1 89.84,164.4 l 0.21,2 -2.05,0.2 c -57.18,-46.7 -90.91,-108.4 -90.92,-166.6 0,-1.4 0.02,-2.9 0.07,-4.4 l 1.5,-1.4 1.42,1.5" /><path
         id="path108"
         style="fill:#f3d460;fill-opacity:1;fill-rule:nonzero;stroke:none"
         d="m 9208.45,10099.8 c -238.64,53.9 -493.93,49.5 -745.2,-24.8 -264.83,-78.33 -491.24,-224.15 -666.18,-413.06 232.69,-223.03 1059.16,-997.57 1059.16,-997.57 l 352.22,1435.43" /><path
         id="path110"
         style="fill:#dc6b43;fill-opacity:1;fill-rule:nonzero;stroke:none"
         d="m 8526.34,9855.08 c 208.74,61.71 422.37,63.3 625.63,14.57 l 16.49,67.22 c -212.68,43.43 -436.82,37.29 -657,-27.81 -233.38,-69 -434.59,-195.92 -594.06,-361.61 16.09,-15.24 32.95,-31.2 50.5,-47.8 148.08,165.05 337.23,290.03 558.44,355.43" /><path
         id="path112"
         style="fill:#dc6b43;fill-opacity:1;fill-rule:nonzero;stroke:none"
         d="m 8954.05,9731.28 c 25.02,-84.64 -23.31,-173.56 -107.96,-198.58 -84.64,-25.02 -173.56,23.31 -198.58,107.96 -25.02,84.64 23.31,173.55 107.96,198.58 84.65,25.02 173.55,-23.31 198.58,-107.96" /><path
         id="path114"
         style="fill:#252d4f;fill-opacity:1;fill-rule:nonzero;stroke:none"
         d="m 8330.4,9586.25 c -16.14,7.43 -20.47,32.46 -9.68,55.9 10.79,23.45 32.62,36.43 48.76,29.01 16.13,-7.43 20.46,-32.46 9.67,-55.9 -10.8,-23.45 -32.62,-36.43 -48.75,-29.01 z m 55.88,121.41 c -30.01,13.81 -70.61,-10.34 -90.68,-53.94 -20.08,-43.61 -12.02,-90.17 17.99,-103.98 30.01,-13.81 70.61,10.34 90.68,53.95 20.08,43.61 12.02,90.16 -17.99,103.97" /><path
         id="path116"
         style="fill:#252d4f;fill-opacity:1;fill-rule:nonzero;stroke:none"
         d="m 8594.4,9259.33 c 2.7,17.56 25.58,28.61 51.08,24.69 25.51,-3.93 44,-21.34 41.3,-38.89 -2.69,-17.56 -25.56,-28.61 -51.07,-24.69 -25.51,3.93 -44.01,21.34 -41.31,38.89 z m 132.11,-20.31 c 5.02,32.65 -29.38,65.04 -76.82,72.33 -47.45,7.3 -89.99,-13.25 -95.01,-45.91 -5.02,-32.65 29.38,-65.03 76.82,-72.33 47.45,-7.3 89.99,13.26 95.01,45.91" /><path
         id="path118"
         style="fill:#252d4f;fill-opacity:1;fill-rule:nonzero;stroke:none"
         d="m 9068.09,9714.4 c -23.75,17.3 -33.36,44.57 -21.45,60.91 11.9,16.35 40.8,15.57 64.55,-1.72 5.44,-3.96 10.1,-8.46 13.97,-13.22 l 8.69,35.44 c -1.37,1.08 -2.7,2.19 -4.12,3.23 -44.18,32.18 -97.94,33.61 -120.08,3.21 -22.14,-30.4 -4.27,-81.13 39.9,-113.29 16.83,-12.26 35.04,-20.02 52.36,-23.3 l 8.72,35.52 c -12.99,-1.32 -28.64,3.1 -42.54,13.22" /><path
         id="path120"
         style="fill:#afc64b;fill-opacity:1;fill-rule:nonzero;stroke:none"
         d="m 8505.47,9366.24 -70.6,-6.27 c -5.16,58.15 5.82,115.57 30.89,161.69 27.62,50.81 74.35,79.8 120.74,103.57 l 32.31,-63.09 c -41.9,-21.46 -73.37,-42.32 -90.78,-74.34 -18.48,-34 -26.5,-77.17 -22.56,-121.56" /><path
         id="path122"
         style="fill:#afc64b;fill-opacity:1;fill-rule:nonzero;stroke:none"
         d="m 8959.56,9401.74 c -47.88,14.85 -99.08,12.68 -144.17,-6.2 l 27.36,-65.39 c 29.71,12.45 63.78,13.83 95.8,3.9 25.92,-8.04 56.27,-25.51 71.19,-44.04 l 18.98,77.36 c -24.29,17.1 -50.78,28.67 -69.16,34.37" /><path
         id="path124"
         style="fill:#dc6b43;fill-opacity:1;fill-rule:nonzero;stroke:none"
         d="m 8345.88,9322.44 c -26.34,89.1 -119.93,139.98 -209.03,113.64 -24.51,-7.25 -46.1,-19.6 -64.01,-35.53 77.02,-72.65 160.77,-151.5 243.96,-229.74 32.47,41.4 45.14,97.33 29.08,151.63" /><path
         id="path126"
         style="fill:#dc6b43;fill-opacity:1;fill-rule:nonzero;stroke:none"
         d="m 8838.76,9184.05 c -93.06,-27.51 -146.2,-125.26 -118.69,-218.32 23.68,-80.07 99.35,-130.53 179.3,-125.55 l 79.95,325.83 c -40.77,24.57 -91.32,32.6 -140.56,18.04" /><path
         id="path128"
         style="fill:#afc64b;fill-opacity:1;fill-rule:nonzero;stroke:none"
         d="m 8578.17,8989.25 c 18.61,19.78 42.94,32.06 66.84,33.68 l -4.8,70.72 c -41.52,-2.8 -82.95,-23.17 -113.66,-55.84 -10.57,-11.22 -19.9,-23.96 -27.99,-37.83 18.26,-17.15 36.15,-33.95 53.65,-50.39 6.87,15.18 15.57,28.62 25.96,39.66" /><path
         id="path130"
         style="fill:#ffb574;fill-opacity:1;fill-rule:nonzero;stroke:none"
         d="M 11080,10113.4 9937.13,9839.69 c -27.3,-6.54 -54.73,10.29 -61.27,37.59 -65.92,275.22 103.77,551.82 379.04,617.72 l 244.9,58.7 c 275.3,65.9 551.8,-103.8 617.7,-379 v 0 c 6.6,-27.3 -10.2,-54.8 -37.5,-61.3" /><path
         id="path132"
         style="fill:#ff7b79;fill-opacity:1;fill-rule:nonzero;stroke:none"
         d="M 11122.3,9947.64 9974.44,9672.72 c -7.93,-1.9 -15.89,2.99 -17.78,10.91 l -32.97,137.66 c -1.9,7.93 2.98,15.89 10.91,17.79 l 1147.9,274.92 c 7.9,1.9 15.9,-3 17.8,-10.9 l 32.9,-137.68 c 1.9,-7.92 -2.9,-15.88 -10.9,-17.78" /><path
         id="path134"
         style="fill:#a8795f;fill-opacity:1;fill-rule:nonzero;stroke:none"
         d="m 11162.2,9781.28 -1147.9,-274.92 c -7.9,-1.9 -15.91,2.99 -17.8,10.91 l -32.97,137.67 c -1.89,7.92 2.99,15.88 10.91,17.78 l 1147.86,274.92 c 7.9,1.9 15.9,-2.99 17.8,-10.92 l 33,-137.66 c 1.9,-7.92 -3,-15.89 -10.9,-17.78" /><path
         id="path136"
         style="fill:#ffb574;fill-opacity:1;fill-rule:nonzero;stroke:none"
         d="M 11217.4,9586.74 10053.2,9307.9 c -13.1,-3.13 -26.2,4.92 -29.3,17.98 l -35.78,149.21 c -3.13,13.06 4.92,26.18 17.98,29.31 l 1164.3,278.84 c 13,3.12 26.1,-4.92 29.3,-17.99 l 35.7,-149.21 c 3.1,-13.05 -4.9,-26.18 -18,-29.3" /><path
         id="path138"
         style="fill:#ffd284;fill-opacity:1;fill-rule:nonzero;stroke:none"
         d="m 10752.1,9858.97 -632.1,-151.39 360.9,-77.37 z" /><path
         id="path140"
         style="fill:#c6e77e;fill-opacity:1;fill-rule:nonzero;stroke:none"
         d="m 10186,9843.52 c 36.8,8.82 64.2,34.53 73.2,64.41 21.4,-22.59 57.5,-33.09 94.4,-24.27 36.8,8.82 64.2,34.53 73.2,64.41 21.4,-22.6 57.5,-33.09 94.4,-24.27 36.8,8.82 64.2,34.53 73.2,64.41 21.4,-22.59 57.5,-33.09 94.4,-24.27 36.8,8.82 64.2,34.53 73.2,64.46 21.4,-22.6 57.5,-33.14 94.4,-24.3 40.6,9.7 69.8,40 75.3,73.8 l -846.3,-202.71 c 20.2,-27.63 59.9,-41.41 100.6,-31.67" /><path
         id="path142"
         style="fill:#fffdff;fill-opacity:1;fill-rule:nonzero;stroke:none"
         d="m 10276.9,10417.9 c 2.1,-8.5 -3.2,-17.1 -11.7,-19.1 -8.5,-2 -17,3.2 -19,11.7 -2.1,8.5 3.2,17 11.7,19.1 8.5,2 17,-3.2 19,-11.7" /><path
         id="path144"
         style="fill:#fffdff;fill-opacity:1;fill-rule:nonzero;stroke:none"
         d="m 10339.2,10465.3 c 2,-8.5 -3.2,-17 -11.7,-19.1 -8.5,-2 -17,3.2 -19,11.7 -2.1,8.5 3.2,17 11.6,19.1 8.5,2 17.1,-3.2 19.1,-11.7" /><path
         id="path146"
         style="fill:#fffdff;fill-opacity:1;fill-rule:nonzero;stroke:none"
         d="m 10410.4,10449.8 c 2.1,-8.4 -3.2,-17 -11.7,-19 -8.5,-2 -17,3.2 -19,11.7 -2,8.5 3.2,17 11.7,19 8.5,2.1 17,-3.2 19,-11.7" /><path
         id="path148"
         style="fill:#fffdff;fill-opacity:1;fill-rule:nonzero;stroke:none"
         d="m 10464.8,10495.4 c 2.1,-8.5 -3.2,-17 -11.6,-19.1 -8.5,-2 -17.1,3.2 -19.1,11.7 -2,8.5 3.2,17 11.7,19.1 8.5,2 17,-3.2 19,-11.7" /><path
         id="path150"
         style="fill:#fffdff;fill-opacity:1;fill-rule:nonzero;stroke:none"
         d="m 10536.1,10479.9 c 2,-8.5 -3.2,-17 -11.7,-19 -8.5,-2 -17,3.2 -19.1,11.7 -2,8.5 3.2,17 11.7,19 8.5,2.1 17,-3.2 19.1,-11.7" /><path
         id="path152"
         style="fill:#8c2d17;fill-opacity:1;fill-rule:nonzero;stroke:none"
         d="m 9276.35,7799.11 c -13.59,3.89 -27.78,4.21 -42,4.39 -6.72,-12.89 -15.72,-24.77 -26.01,-34.99 -22.33,-22.19 -50.29,-37.74 -78.39,-51.92 -94.04,-47.46 -194.17,-82.84 -297.14,-105.01 -37.16,-8 -89.04,-17.75 -126.85,-1.15 -16.37,-14.11 -30.69,-30.35 -40.8,-49.38 -16.86,-31.68 -20.46,-72.03 -2.48,-103.11 5.26,-9.11 12.14,-16.99 20.09,-23.69 18.45,-15.54 42.78,-24.64 67.02,-27.38 34.71,-3.94 69.64,3.33 103.59,11.53 144.55,34.94 279.81,103.32 401.69,187.58 19.81,13.7 39.29,28.37 54.59,46.97 4.67,5.68 8.87,11.83 12.55,18.24 8.37,14.58 13.78,30.75 13.99,47.47 0.45,35.91 -25.32,70.56 -59.85,80.45" /><path
         id="path154"
         style="fill:#8c2d17;fill-opacity:1;fill-rule:nonzero;stroke:none"
         d="m 9433.39,7487.8 c -9.34,16.66 -22.36,31.13 -37.69,42.49 -2.76,-7.11 -6.05,-13.96 -9.98,-20.36 -27.06,-44.05 -73.59,-71.9 -119.14,-96.38 -138.65,-74.45 -285.47,-133.68 -436.97,-176.26 -29.96,-8.43 -60.63,-16.26 -91.74,-15.23 -23.59,0.79 -47.73,7.36 -66.78,20.84 -17.3,-21.02 -29.63,-45.89 -33.44,-72.72 -5.85,-41.13 10.77,-86.22 45.63,-108.82 26.1,-16.93 57.7,-19.64 89.27,-16.64 14.2,1.34 28.39,3.84 42.06,6.74 186.81,39.42 379.7,114.76 537.66,223.32 4.31,2.95 8.61,5.98 12.88,9.08 29.13,21.13 56.44,45.63 72.01,77.79 19.05,39.37 17.6,88 -3.77,126.15" /><path
         id="path156"
         style="fill:#df7a04;fill-opacity:1;fill-rule:nonzero;stroke:none"
         d="m 8814.61,7051.46 c -13.67,-2.9 -27.86,-5.4 -42.06,-6.74 91.32,-208.02 438.36,-999.72 455.04,-1055.12 -1.3,60.8 107.31,1026.63 137.56,1294.26 -4.27,-3.1 -8.57,-6.13 -12.88,-9.08 -157.96,-108.56 -350.85,-183.9 -537.66,-223.32" /><path
         id="path158"
         style="fill:#f3f3f1;fill-opacity:1;fill-rule:nonzero;stroke:none"
         d="m 9373.08,7651.4 c -14.5,11.83 -32.25,17.97 -50.87,19.79 -3.68,-6.41 -7.88,-12.56 -12.55,-18.24 -15.3,-18.6 -34.78,-33.27 -54.59,-46.97 -121.88,-84.26 -257.14,-152.64 -401.69,-187.58 -33.95,-8.2 -68.88,-15.47 -103.59,-11.53 -24.24,2.74 -48.57,11.84 -67.02,27.38 -16.9,-19.48 -31.66,-40.61 -40.86,-64.58 -14.08,-36.73 -12.71,-81.69 12.68,-111.74 4.86,-5.74 10.42,-10.72 16.5,-15.03 19.05,-13.48 43.19,-20.05 66.78,-20.84 31.11,-1.03 61.78,6.8 91.74,15.23 151.5,42.58 298.32,101.81 436.97,176.26 45.55,24.48 92.08,52.33 119.14,96.38 3.93,6.4 7.22,13.25 9.98,20.36 16.27,41.84 11.63,93.16 -22.62,121.11" /><path
         id="path160"
         style="fill:#f3f3f1;fill-opacity:1;fill-rule:nonzero;stroke:none"
         d="m 8705.96,7610.43 c 37.81,-16.6 89.69,-6.85 126.85,1.15 102.97,22.17 203.1,57.55 297.14,105.01 28.1,14.18 56.06,29.73 78.39,51.92 10.29,10.22 19.29,22.1 26.01,34.99 7.86,15.06 12.6,31.53 12.54,48.49 -0.13,34.55 -20.04,66.63 -46.05,89.38 -26.02,22.73 -57.81,37.6 -89.13,52.17 -55.63,25.88 -111.25,51.76 -166.88,77.64 -20.76,-79.34 -64.76,-152.46 -125.16,-207.96 -49.69,-45.66 -116.12,-84.26 -147.91,-146.76 -15.49,-30.45 -14.89,-63.54 10.08,-89.46 6.99,-7.26 15.17,-12.63 24.12,-16.57" /><path
         id="path162"
         style="fill:#f7ac03;fill-opacity:1;fill-rule:nonzero;stroke:none"
         d="m 8762.55,7764.97 c 20.82,-6.54 41.03,-15.06 60.24,-25.4 l 1.76,0.53 -0.53,1.76 c -19.36,10.42 -39.71,19 -60.69,25.59 l -1.63,-0.85 0.85,-1.63" /><path
         id="path164"
         style="fill:#f7ac03;fill-opacity:1;fill-rule:nonzero;stroke:none"
         d="m 8818.69,7810.04 c 3.95,0.17 7.91,0.26 11.87,0.26 10.82,0 21.64,-0.64 32.38,-1.93 l 1.45,1.13 -1.14,1.45 c -10.84,1.3 -21.77,1.95 -32.69,1.95 -3.99,0 -7.99,-0.09 -11.98,-0.26 l -1.25,-1.36 1.36,-1.24" /><path
         id="path166"
         style="fill:#f7ac03;fill-opacity:1;fill-rule:nonzero;stroke:none"
         d="m 8916.67,7750.88 c -4.5,13.87 -7.28,28.31 -8.23,42.86 l -1.39,1.21 -1.21,-1.38 c 0.98,-14.77 3.79,-29.42 8.36,-43.49 l 1.64,-0.84 0.84,1.64" /><path
         id="path168"
         style="fill:#f7ac03;fill-opacity:1;fill-rule:nonzero;stroke:none"
         d="m 8967.75,7766.8 c 17.52,14.67 36.51,27.58 56.61,38.46 l 0.53,1.76 -1.76,0.53 c -20.26,-10.97 -39.4,-23.98 -57.05,-38.76 l -0.16,-1.83 1.83,-0.16" /><path
         id="path170"
         style="fill:#f7ac03;fill-opacity:1;fill-rule:nonzero;stroke:none"
         d="m 8909.82,7916.69 c 14.86,-11.24 30.6,-21.31 47.04,-30.06 l 1.76,0.53 -0.53,1.76 c -16.32,8.69 -31.96,18.68 -46.7,29.84 l -1.82,-0.25 0.25,-1.82" /><path
         id="path172"
         style="fill:#f7ac03;fill-opacity:1;fill-rule:nonzero;stroke:none"
         d="m 9023.72,7889.52 c 16.25,-9.82 30.58,-22.84 41.93,-38.09 l 1.81,-0.27 0.27,1.82 c -11.55,15.52 -26.12,28.77 -42.67,38.77 l -1.78,-0.44 0.44,-1.79" /><path
         id="path174"
         style="fill:#f7ac03;fill-opacity:1;fill-rule:nonzero;stroke:none"
         d="m 9018.46,7996.35 c -6.36,-24.71 -12.72,-49.4 -19.08,-74.11 l 0.93,-1.58 1.58,0.93 c 6.37,24.71 12.73,49.4 19.09,74.11 l -0.93,1.58 -1.59,-0.93" /><path
         id="path176"
         style="fill:#f7ac03;fill-opacity:1;fill-rule:nonzero;stroke:none"
         d="m 9084.25,7949.74 c 13.86,-15.53 23.99,-34.38 29.29,-54.52 l 1.59,-0.93 0.93,1.59 c -5.41,20.54 -15.73,39.75 -29.87,55.59 l -1.84,0.1 -0.1,-1.83" /><path
         id="path178"
         style="fill:#f7ac03;fill-opacity:1;fill-rule:nonzero;stroke:none"
         d="m 9186.16,7888.7 c -11.78,-21.35 -23.56,-42.71 -35.34,-64.06 l 0.51,-1.76 1.77,0.51 c 11.78,21.34 23.56,42.7 35.33,64.06 l -0.51,1.76 -1.76,-0.51" /><path
         id="path180"
         style="fill:#1b75bc;fill-opacity:1;fill-rule:nonzero;stroke:none"
         d="m 10274,13743.4 -3687.97,-812 -92.76,421.2 3688.03,812.1 92.7,-421.3" /><path
         id="path182"
         style="fill:#efb289;fill-opacity:1;fill-rule:nonzero;stroke:none"
         d="m 13699.6,2711.2 c 121,-238.2 242,-476.5 362.9,-714.7 -142.4,436.3 -323.4,890.3 -555.8,1297.9 -78.9,-13.9 -159.1,-22.6 -240,-27.1 46.9,-31.5 92.1,-65.2 133.4,-104 132.4,-124.5 217.2,-290 299.5,-452.1" /><g
         transform="scale(1.24742)"
         id="g184"><path
           id="path186"
           style="fill:#f9caaa;fill-opacity:1;fill-rule:nonzero;stroke:none"
           d="m 14919,1496.69 c -258.6,193.03 -586.7,728.94 -747.9,1008.4 -153.7,266.38 -198.4,579.51 -288.9,873.47 -139.9,454.54 -394.8,867.23 -713.6,1217.96 -158.9,174.83 -334.7,327.79 -517.2,477.06 -143.1,116.96 -345.1,324.43 -548.1,188.07 -50.2,-33.67 -77,-90.67 -87,-151.43 -184.6,114.95 -394.3,182.69 -576.6,134.59 -151.5,-40.16 -217,-187.34 -229.9,-337.09 -89.4,81.45 -186.8,152.95 -285.4,171.07 -77.4,14.27 -157.6,22.93 -234.6,6.65 -208.8,-44.25 -325.8,-253.56 -310.5,-454.61 -109,131.79 -220.4,261.66 -334.6,388.96 -190.46,212.2 -399.78,406.28 -591.85,616.23 -121.29,132.59 -348.24,260.87 -520.2,117.73 -68.22,-56.78 -96.19,-151.59 -89.62,-240.07 6.57,-88.5 43.37,-171.95 86.18,-249.63 103.01,-187.1 249.31,-338.54 377.17,-507.29 161.86,-213.55 311.93,-437.06 469.29,-654.06 297.53,-410.53 620.63,-807.43 906.23,-1226.05 51.6,-75.44 99.6,-154.72 145.8,-235.69 186.3,-326.75 331.4,-690.7 445.5,-1040.46 -96.9,190.95 -193.9,381.99 -290.9,572.94 -66,129.95 -133.9,262.62 -240.1,362.43 -33.1,31.1 -69.3,58.12 -106.9,83.37 -79.3,53.23 -165.2,97.88 -244.7,151.27 -153.3,103.17 -281.1,239.21 -420.93,360.02 -139.89,120.81 -299.18,229.6 -481.39,260.7 -176.53,30.14 -377.42,-29.42 -475.14,-177.97 33.83,-4.32 1160.86,-1328.66 1648.56,-1618.29 523.4,-310.72 1171,-352.81 1699.8,-654.149 335.3,-191.116 603.5,-478.349 805.2,-809.428 H 16300 c 0,0 -1241.5,1261.157 -1381,1365.297" /></g><path
         id="path188"
         style="fill:#c49a6c;fill-opacity:1;fill-rule:nonzero;stroke:none"
         d="m 12963.5,5790.7 c 371.9,-433 735.8,-873 1091.4,-1319.4 l 11.3,9 c -355.7,446.6 -719.7,886.7 -1091.6,1319.9 l -11.1,-9.5" /><path
         id="path190"
         style="fill:#c49a6c;fill-opacity:1;fill-rule:nonzero;stroke:none"
         d="m 14006.2,6110.6 c 329.1,-325.9 658.2,-651.8 987.4,-977.8 l 10.2,10.3 c -329.1,326 -658.2,651.9 -987.4,977.9 l -10.2,-10.4" /><path
         id="path192"
         style="fill:#c49a6c;fill-opacity:1;fill-rule:nonzero;stroke:none"
         d="m 15004.7,6363.3 c 16.3,-61 61,-108.1 103,-151.9 114.1,-118.5 228.1,-236.9 342.2,-355.4 114.5,-118.8 231.4,-239.9 376.1,-322.1 l 7.2,12.6 c -142.3,80.8 -258.4,200.7 -372.8,319.6 -114.1,118.5 -228.1,236.9 -342.2,355.4 -42.1,43.6 -84.6,89.3 -99.5,145.5 l -14,-3.7" /><path
         id="path194"
         style="fill:#48352e;fill-opacity:1;fill-rule:nonzero;stroke:none"
         d="m 13998.2,10622 c 79.5,-361.8 -149.4,-719.57 -511.2,-799.05 -361.8,-79.47 -719.6,149.41 -799.1,511.25 -79.4,361.8 149.5,719.5 511.3,799 361.8,79.5 719.5,-149.4 799,-511.2" /><path
         id="path196"
         style="fill:#271d1c;fill-opacity:1;fill-rule:nonzero;stroke:none"
         d="m 13858.9,10591.4 c 62.6,-284.9 -117.6,-566.6 -402.5,-629.17 -284.9,-62.58 -566.6,117.67 -629.2,402.57 -62.6,284.9 117.7,566.6 402.6,629.1 284.9,62.6 566.5,-117.6 629.1,-402.5" /><path
         id="path198"
         style="fill:#eaedf4;fill-opacity:1;fill-rule:nonzero;stroke:none"
         d="m 13653.5,10546.3 c 37.7,-171.5 -70.8,-341 -242.2,-378.7 -171.5,-37.6 -341,70.8 -378.7,242.3 -37.6,171.5 70.8,341 242.3,378.6 171.4,37.7 341,-70.8 378.6,-242.2" /><path
         id="path200"
         style="fill:#515254;fill-opacity:1;fill-rule:nonzero;stroke:none"
         d="m 13444.9,10500.4 c 12.4,-56.2 -23.2,-111.8 -79.5,-124.2 -56.2,-12.3 -111.8,23.3 -124.2,79.5 -12.3,56.3 23.3,111.9 79.5,124.2 56.3,12.4 111.9,-23.2 124.2,-79.5" /><path
         id="path202"
         style="fill:#676767;fill-opacity:1;fill-rule:nonzero;stroke:none"
         d="m 13443.9,10451.7 -145.6,-31.9 -86.8,395.3 145.6,32 86.8,-395.4" /><g
         transform="scale(1.08923)"
         id="g204"><path
           id="path206"
           style="fill:#48352e;fill-opacity:1;fill-rule:nonzero;stroke:none"
           d="m 16227,10493.3 c 73,-332.2 -137.1,-660.65 -469.3,-733.61 -332.2,-72.97 -660.7,137.17 -733.6,469.31 -72.9,332.2 137.2,660.6 469.4,733.6 332.1,73 660.5,-137.2 733.5,-469.3" /></g><g
         transform="scale(1.07965)"
         id="g208"><path
           id="path210"
           style="fill:#271d1c;fill-opacity:1;fill-rule:nonzero;stroke:none"
           d="m 16242,10558.1 c 58,-263.9 -108.9,-524.8 -372.8,-582.79 -263.9,-57.95 -524.8,108.99 -582.8,372.89 -57.9,263.8 109,524.7 372.9,582.7 263.9,58 524.8,-109 582.7,-372.8" /></g><g
         transform="scale(1.06552)"
         id="g212"><path
           id="path214"
           style="fill:#eaedf4;fill-opacity:1;fill-rule:nonzero;stroke:none"
           d="m 16264.7,10655.7 c 35.3,-160.9 -66.4,-320 -227.4,-355.3 -160.9,-35.4 -320,66.4 -355.4,227.3 -35.3,160.9 66.4,320 227.4,355.4 161,35.3 320,-66.5 355.4,-227.4" /></g><g
         transform="scale(1.05117)"
         id="g216"><path
           id="path218"
           style="fill:#515254;fill-opacity:1;fill-rule:nonzero;stroke:none"
           d="m 16288.2,10757.6 c 11.8,-53.5 -22.1,-106.4 -75.5,-118.2 -53.6,-11.7 -106.5,22.1 -118.3,75.6 -11.7,53.5 22.2,106.4 75.6,118.2 53.6,11.8 106.5,-22.1 118.2,-75.6" /></g><g
         transform="scale(1.0475)"
         id="g220"><path
           id="path222"
           style="fill:#676767;fill-opacity:1;fill-rule:nonzero;stroke:none"
           d="m 16300,10807.8 -117.5,-80.3 -346.4,507.3 117.6,80.2 346.3,-507.2" /></g><path
         id="path224"
         style="fill:#525159;fill-opacity:1;fill-rule:nonzero;stroke:none"
         d="m 15978.7,12555.1 c -18.1,37.4 -39.6,72.8 -63.2,106.9 58,-180 86.5,-376.5 74.5,-555.6 -4.7,-69.6 -17.2,-138.6 -34,-206.3 -30.3,-122.2 -77.3,-245.6 -168.7,-332.1 -67.3,-63.7 -153.9,-103 -241.3,-133.5 -113.1,-39.6 -229.8,-66 -348.1,-85.1 -0.3,-5.8 -0.5,-11.6 -0.8,-17.4 -0.4,-9.2 -0.6,-19.3 5.2,-26.4 1.5,-1.8 3.3,-3 5.2,-4.2 7.6,-4.7 18,-5.1 27.4,-4.7 90.7,3.6 181.4,7.3 272.1,11 25.5,1 51.8,1.9 75.6,-7.2 23.8,-9.2 44.7,-31.1 44.4,-56.6 -0.3,-15.3 -8,-28.6 -18,-40.5 40.8,18.6 78.6,42.3 111,74.1 68,66.9 119.7,153.4 173.7,231.4 160.9,232.5 203.4,530.5 157.1,805.5 -13.9,82.9 -35.6,165 -72.1,240.7" /><path
         id="path226"
         style="fill:#231f20;fill-opacity:1;fill-rule:nonzero;stroke:none"
         d="m 15550.3,14117 c 16.3,34.4 22.7,72.6 22.7,110.4 0,6.5 -0.2,12.9 -0.6,19.4 -2.4,44 -12.4,87 -23,129.4 l -8.1,-2 c 10.6,-42.3 20.4,-84.8 22.7,-127.9 0.4,-6.3 0.6,-12.6 0.6,-18.9 0,-36.9 -6.2,-73.8 -21.9,-106.8 l 7.6,-3.6" /><path
         id="path228"
         style="fill:#fabf23;fill-opacity:1;fill-rule:nonzero;stroke:none"
         d="m 15852.8,13795.9 c -20.1,-7 -39.4,12 -50.8,30 -44.3,70.2 -55.8,160.8 -78.7,239.5 -3.6,12.2 -7.2,24.9 -5.2,37.5 1.4,8.4 6.3,16.5 13.1,21.3 -41.3,42 -106.6,58.8 -165.4,48.3 -4.4,-0.8 -8.6,-2.1 -12.9,-3.1 -62.1,-15 -116.3,-55.6 -157.2,-104.9 -43.8,-52.8 -74.4,-115 -103.8,-176.9 -0.9,-1.8 -1.7,-3.7 -2.5,-5.4 2.1,1.5 4.3,3 6.8,3.6 5.9,1.5 12,-0.4 17.7,-2.2 17.2,-5.6 34.5,-11.2 51.7,-16.9 79.2,-25.7 113.8,-114.3 20.5,-155.1 -37.8,-16.6 -80.7,-15.2 -122,-17.6 -8.9,-0.5 -17.9,-1.2 -26.5,-3.8 -3.9,-1.2 -7.6,-2.8 -11.3,-4.6 37.8,-47.1 77.2,-92.9 119.6,-135.9 22.2,-22.4 47.2,-45.4 78.4,-49.8 10.9,-1.6 21.6,-0.6 32.2,1.7 21.2,4.8 41.6,15.6 60.8,26.3 58.9,32.8 117.8,65.6 176.7,98.5 7.9,4.4 15.9,8.9 23.9,13.3 30,16.8 60,33.5 90.1,50.2 15.3,8.6 31.2,17.5 41.9,31.5 17.1,22.4 17,50.4 9.7,78.4 -2.1,-1.5 -4.3,-2.9 -6.8,-3.9" /><path
         id="path230"
         style="fill:#f0b08d;fill-opacity:1;fill-rule:nonzero;stroke:none"
         d="m 15365.6,13866.7 c -17.2,5.7 -34.5,11.3 -51.7,16.9 -5.7,1.8 -11.8,3.7 -17.7,2.2 -2.5,-0.6 -4.7,-2.1 -6.8,-3.6 -3,-2.2 -5.7,-4.8 -8.2,-7.5 -40.2,-42.9 -88.3,-78.3 -141.1,-104.1 1.2,-3.6 2.3,-7.3 3.2,-11 8.5,-35.2 17,-70.4 25.5,-105.6 14.9,8.3 29.7,16.6 44.5,24.8 4.3,2.4 8.6,4.7 13,6.8 3.7,1.8 7.4,3.4 11.3,4.6 8.6,2.6 17.6,3.3 26.5,3.8 41.3,2.4 84.2,1 122,17.6 93.3,40.8 58.7,129.4 -20.5,155.1" /><path
         id="path232"
         style="fill:#ba4617;fill-opacity:1;fill-rule:nonzero;stroke:none"
         d="m 15171.9,13641.3 c -1,4.2 -2.1,8.5 -3.1,12.7 -8.5,35.2 -17,70.4 -25.5,105.6 -0.9,3.7 -2,7.4 -3.2,11 -2,6 -4.5,11.7 -8.8,16 -14.6,14.7 -39.1,8.7 -58.6,1.9 -175.5,-61.7 -360.5,-116 -545.1,-92.8 -13.1,1.6 -26.8,3.9 -37,12.3 -9,7.3 -14,18.3 -18.7,28.9 -78.8,177.7 -141.8,386.8 -250.7,548 -25.1,37.1 -55.7,69.4 -89.2,98.5 -21.8,-9 -43,-19.4 -63.1,-31.6 -23.3,-14.1 -45.3,-30.3 -64.3,-49.9 -42.9,-44 -71,-105.2 -65.5,-166.5 2.8,-30.7 13.7,-60.1 24.5,-89 73.3,-196.6 146,-377.3 254.3,-557.2 39.8,-66 87.6,-138 162.9,-154.4 9.1,-2 18.4,-2.8 27.6,-3.1 32.1,-1.2 64.5,5.9 96,13.5 203.7,49.3 404.8,109.8 601.9,181.1 26.5,9.5 55.6,21.7 67,47.5 9.2,21 4,45.2 -1.4,67.5" /><path
         id="path234"
         style="fill:#f13833;fill-opacity:1;fill-rule:nonzero;stroke:none"
         d="m 15627,11243.9 c 0.3,25.5 -20.6,47.4 -44.4,56.6 -23.8,9.1 -50.1,8.2 -75.6,7.2 -90.7,-3.7 -181.4,-7.4 -272.1,-11 -9.4,-0.4 -19.8,0 -27.4,4.7 -76.6,-8.6 -153.7,-11.3 -230.7,-7.6 -0.1,-1.5 -0.3,-3 -0.4,-4.6 -0.4,-8.4 -0.9,-17.2 -4.7,-24.7 -2.7,-5.2 -6.7,-9.5 -10.5,-13.8 -28.7,-33.5 -41.7,-78.2 -43.4,-122.2 -1.2,-29.4 2.5,-58.6 8.2,-87.5 122,26.8 244.1,53.6 366.2,80.4 102.6,22.6 218.6,37.2 316.8,82 10,11.9 17.7,25.2 18,40.5" /><path
         id="path236"
         style="fill:#322670;fill-opacity:1;fill-rule:nonzero;stroke:none"
         d="m 15150.3,12485.5 c -3.6,8.4 -11.1,14.1 -19.4,18.4 -24.3,-72.4 -72.8,-138.1 -115.6,-202.9 -158.7,-240.4 -258.1,-526 -245.2,-813.7 0.4,-8.6 0.9,-17.4 4.6,-25.1 3.8,-8.2 10.8,-14.3 17.9,-19.8 l 1.7,-1.5 c 54.5,-41.6 121.3,-66.4 189.6,-71.7 2,16 4.2,32 6.8,47.9 -3.2,2.2 -5.9,4.9 -7.9,8.4 -4,7.2 -4.1,15.9 -4,24.1 3.1,271.6 -52.4,543.3 72.7,799.1 33.4,68.4 78.1,132.3 97.9,205.8 2.8,10.2 5,21.3 0.9,31" /><path
         id="path238"
         style="fill:#febe9a;fill-opacity:1;fill-rule:nonzero;stroke:none"
         d="m 14080.7,15095.6 c 2.4,-70.6 1,-141.3 -4.2,-211.7 -2.4,-31.7 -5.7,-64.3 -20.4,-92.5 -12.3,-23.8 -31.9,-43.1 -53.6,-58.8 -2.2,-1.7 -4.6,-2.8 -7,-4.4 28.3,-22.2 58.7,-41.7 91.2,-57 19.4,-9.2 40.3,-17.7 61.6,-24.5 89.8,-28.8 187.2,-27.1 212.3,90.7 4,19 8.1,38 12.1,57 13.1,2.3 25.7,7.1 36.9,14.2 3.6,2.2 7.2,4.9 9,8.7 1.7,3.7 1.5,8 1.2,12.1 -5.5,93.9 1.5,185.9 -1.9,278.9 -112.6,1.8 -225.2,-2.2 -337.2,-12.7" /><g
         transform="scale(1.0229)"
         id="g240"><path
           id="path242"
           style="fill:#f4e528;fill-opacity:1;fill-rule:nonzero;stroke:none"
           d="m 15454.4,13200 c 271.3,-353.5 543.3,-759.6 662.3,-1197.6 58.6,24.2 120.9,40.4 183.3,54.3 -90,182.1 -186.1,361.2 -300.8,528.6 -109.4,159.7 -234.9,307.7 -360.1,455.4 -86.5,102 -173.6,204.6 -273.1,293.6 -7.8,-4.3 -15.7,-8.7 -23.4,-13 42.6,-33.8 78.4,-77.7 111.8,-121.3" /></g><path
         id="path244"
         style="fill:#f0b08d;fill-opacity:1;fill-rule:nonzero;stroke:none"
         d="m 14794.3,11440.9 -1.7,1.5 c -17.9,-44 -29.8,-90.4 -35.3,-137.6 10.9,-0.2 21.8,0.3 32.6,1.1 63,4.4 126.1,9.4 189.1,15.5 1.3,16 2.9,31.9 4.9,47.8 -68.3,5.3 -135.1,30.1 -189.6,71.7" /><path
         id="path246"
         style="fill:#f0b08d;fill-opacity:1;fill-rule:nonzero;stroke:none"
         d="m 15197.9,11349.4 c 0.9,19.7 1.8,39.3 2.8,58.9 -57.1,5.2 -116.9,0.8 -174.1,1.2 -12.3,0 -26.3,1.1 -35.9,7.6 -2.6,-15.9 -4.8,-31.9 -6.8,-47.9 -2,-15.9 -3.6,-31.8 -4.9,-47.8 -0.7,-9.2 -1.7,-18.3 -2.2,-27.6 77,-3.7 154.1,-1 230.7,7.6 -1.9,1.2 -3.7,2.4 -5.2,4.2 -5.8,7.1 -5.6,17.2 -5.2,26.4 0.3,5.8 0.5,11.6 0.8,17.4" /><path
         id="path248"
         style="fill:#ed9819;fill-opacity:1;fill-rule:nonzero;stroke:none"
         d="m 14182.3,11613.7 c -56.2,120.8 -177.3,202.8 -306.3,236.2 -128.9,33.4 -265.5,23.3 -396.4,-1.6 -272,-51.8 -536.1,-170.1 -732,-365.8 -21.6,-21.6 -42,-44.4 -61.8,-67.8 -57.3,-121.4 -103.8,-248.2 -138.4,-378 229.6,367.5 642.5,615.2 1074,640.8 77,4.6 169.4,4 231.8,-45.7 65.5,-52.2 111.1,-128.7 138.7,-206.7 58.6,-165.8 57,-342.6 35.3,-518.9 -2.7,-21.5 -5.5,-43.1 -8.7,-64.5 19.6,4.3 39.1,8.6 58.7,12.9 23.8,5.2 47.7,10.4 71.5,15.7 4.9,21.8 9.2,43.6 13.6,65.5 21.4,107.3 37.1,215.6 46.3,324.6 9.9,118.1 25.4,242.3 -26.3,353.3" /><path
         id="path250"
         style="fill:#fabf23;fill-opacity:1;fill-rule:nonzero;stroke:none"
         d="m 13991.9,11425.1 c -27.6,78 -73.2,154.5 -138.7,206.7 -62.4,49.7 -154.8,50.3 -231.8,45.7 -431.5,-25.6 -844.4,-273.3 -1074,-640.8 -41.1,-154 -65.3,-312.2 -69.9,-470.9 l 1549.7,340.4 c 21.7,176.3 23.3,353.1 -35.3,518.9" /><path
         id="path252"
         style="fill:#231514;fill-opacity:1;fill-rule:nonzero;stroke:none"
         d="m 15965.6,12657.1 c -38.3,67.7 -81.1,132.6 -126.3,195.9 29.3,-60.3 54.8,-124.4 76.2,-191 23.6,-34.1 45.1,-69.5 63.2,-106.9 36.5,-75.7 58.2,-157.8 72.1,-240.7 46.3,-275 3.8,-573 -157.1,-805.5 -54,-78 -105.7,-164.5 -173.7,-231.4 -32.4,-31.8 -70.2,-55.5 -111,-74.1 -98.2,-44.8 -214.2,-59.4 -316.8,-82 -122.1,-26.8 -244.2,-53.6 -366.2,-80.4 -42.5,-9.3 -84.9,-18.6 -127.4,-28 -216.6,-47.6 -433.3,-95.1 -649.9,-142.7 -23.8,-5.3 -47.7,-10.5 -71.5,-15.7 1.6,-26.5 5.4,-52.5 11.8,-77.9 l 1560.2,342.7 c 212.4,129.6 361.1,359.3 427.1,602.5 88.3,325.7 55.7,640.8 -110.7,935.2" /><g
         transform="scale(1.07191)"
         id="g254"><path
           id="path256"
           style="fill:#fabf23;fill-opacity:1;fill-rule:nonzero;stroke:none"
           d="m 16186.7,11375.2 c -60.8,91.2 -149.4,142.4 -257.2,161.4 -113.9,20.1 -230.8,-0.5 -344,-24.4 -10.3,-2.2 -20.5,-4.5 -30.7,-6.8 -59.5,-13.2 -119.1,-28.7 -174.9,-51.7 10.4,-38.6 20.1,-77.4 28,-116.6 20.5,-101.8 29.6,-205.8 27.1,-309.6 -0.8,-34.4 -3.2,-68.8 -7.1,-103 263.7,149.5 569.1,224.8 872.1,215.1 -26.9,83.2 -64.7,162.9 -113.3,235.6" /></g><g
         transform="scale(1.01519)"
         id="g258"><path
           id="path260"
           style="fill:#fabf23;fill-opacity:1;fill-rule:nonzero;stroke:none"
           d="m 16239.1,12093.6 c -119.9,441.3 -393.9,850.5 -667.3,1206.7 -33.6,43.9 -69.8,88.1 -112.6,122.2 -58,-32.4 -116.1,-64.7 -174.1,-97 -18.9,-10.6 -39,-21.2 -59.9,-25.9 104.1,-213.3 255.1,-400 363.9,-610.9 4.6,-9 8.7,-18.8 13.2,-28 44.5,-62.4 86.7,-126.3 124.4,-193 163.9,-290 196,-600.4 109.1,-921.1 -65.1,-239.7 -211.5,-466 -420.8,-593.6 l -1536.8,-337.6 c 6.4,-25.8 15,-51.2 27.1,-75.7 12,-24.2 26.5,-47.7 47.3,-64.9 8.6,-7.1 18.1,-12.7 28,-17.4 l 1887.7,414.6 c 84,63.6 158.4,140.9 224.6,223.2 60,74.6 114.9,154.5 150,243.6 24.8,62.7 39.2,128.9 47,196 4.1,36.1 6.6,72.5 7.4,108.8 2.7,109.6 -7,219.5 -28.5,326.9 -8.4,41.3 -18.6,82.3 -29.7,123.1" /></g><path
         id="path262"
         style="fill:#ac7b50;fill-opacity:1;fill-rule:nonzero;stroke:none"
         d="m 14502.5,12406.9 c 64.1,14.1 128,30 192.5,42.3 26.1,5 50.3,12.1 73.8,20.2 -9.6,9.3 -21,16.6 -34.3,20.3 13.3,-3.7 24.7,-11 34.3,-20.3 56.1,19.2 106.3,45.9 156,76.5 -116.7,1.3 -237.3,-26.4 -352.6,-51.8 -197.2,-43.4 -396,-94.8 -596,-118.9 -40.2,-4.9 -82.1,-8.6 -120.3,5 -65.3,23.2 -103.2,90.5 -129.3,154.7 -5.1,12.6 -9.3,25.2 -13.6,37.9 -45.1,-12.6 -90.1,-25.3 -135.1,-37.9 -89.7,-25.1 -188.3,-56.9 -234.4,-137.8 -20.8,-36.4 -28.1,-78.7 -35.1,-120 -7.7,-45.9 -15.4,-91.7 -23.1,-137.5 218.9,48.1 437.8,96.1 656.7,144.2 186.8,41.1 373.7,82.1 560.5,123.1" /><path
         id="path264"
         style="fill:#f47032;fill-opacity:1;fill-rule:nonzero;stroke:none"
         d="m 14380.8,13334.8 c -75.3,16.4 -123.1,88.4 -162.9,154.4 -108.3,179.9 -181,360.6 -254.3,557.2 -10.8,28.9 -21.7,58.3 -24.5,89 -5.5,61.3 22.6,122.5 65.5,166.5 19,19.6 41,35.8 64.3,49.9 20.1,12.2 41.3,22.6 63.1,31.6 -19.6,17.1 -40.3,33.1 -61.7,48.1 -23.7,16.6 -48.1,32.3 -72.8,47.1 -54.1,32.4 -131.6,103.2 -202.1,96.1 -9.4,-1 -18.7,-3.2 -27.8,-7.2 -27.3,-12.1 -45.7,-37.8 -61.6,-62.9 -135.4,-213.3 -193.9,-468.8 -201,-721.4 -7.1,-252.5 34.7,-503.9 87,-751.1 19,-89.6 48.6,-175.9 69.6,-264.5 1.4,-5.9 2.7,-11.8 4.1,-17.7 40.1,-1.1 80.9,3.8 119.3,13.8 104.9,27.2 198.9,84.7 297.7,129.2 61,27.5 124,50.1 187.9,69.9 59.8,18.6 126.9,39.9 155.4,95.5 1.2,2.2 1.9,4.5 2.9,6.7 17.1,39.2 11.9,85 5.2,127.7 -7.4,46.5 -16.2,92.8 -25.7,139 -9.2,0.3 -18.5,1.1 -27.6,3.1" /><path
         id="path266"
         style="fill:#4a3786;fill-opacity:1;fill-rule:nonzero;stroke:none"
         d="m 15573,12961.1 c -19.1,25.8 -53.8,33.1 -85.4,38.5 -262.3,45 -527.4,85.4 -793.3,74.7 -87.4,-3.5 -177.7,-12 -265.4,-9.3 -1,-2.2 -1.7,-4.5 -2.9,-6.7 -28.5,-55.6 -95.6,-76.9 -155.4,-95.5 -63.9,-19.8 -126.9,-42.4 -187.9,-69.9 -98.8,-44.5 -192.8,-102 -297.7,-129.2 -38.4,-10 -79.2,-14.9 -119.3,-13.8 13.9,-59.7 27.2,-118.7 47.3,-177.1 4.3,-12.7 8.5,-25.3 13.6,-37.9 26.1,-64.2 64,-131.5 129.3,-154.7 38.2,-13.6 80.1,-9.9 120.3,-5 200,24.1 398.8,75.5 596,118.9 115.3,25.4 235.9,53.1 352.6,51.8 67.4,-0.8 133.6,-11.2 196.5,-37.5 3.2,-1.4 6.5,-2.9 9.6,-4.5 8.3,-4.3 15.8,-10 19.4,-18.4 4.1,-9.7 1.9,-20.8 -0.9,-31 -19.8,-73.5 -64.5,-137.4 -97.9,-205.8 -125.1,-255.8 -69.6,-527.5 -72.7,-799.1 -0.1,-8.2 0,-16.9 4,-24.1 2,-3.5 4.7,-6.2 7.9,-8.4 9.6,-6.5 23.6,-7.6 35.9,-7.6 57.2,-0.4 117,4 174.1,-1.2 l 1.9,-0.1 c 19.2,-1.8 32.2,-8.9 49.5,2.3 18.5,11.8 29.9,37.9 36.6,57.8 10.8,32.2 14.9,66.3 20.2,99.9 16.8,106.7 44.5,214.4 74.2,317.6 31.9,110.6 59.8,222.5 85.5,334.7 27.1,119 48.9,239.2 75.9,358.1 25.2,111 59.9,209.4 46.3,326.3 -2.3,19.8 -5.9,40.2 -17.8,56.2" /><path
         id="path268"
         style="fill:#f0b08d;fill-opacity:1;fill-rule:nonzero;stroke:none"
         d="m 13997.5,14478.6 c 24.7,-14.8 49.1,-30.5 72.8,-47.1 1.5,48.9 6.3,97.9 27.1,141.8 12.7,27 31.2,50.9 50.9,73.4 -21.3,6.8 -42.2,15.3 -61.6,24.5 -32.5,15.3 -62.9,34.8 -91.2,57 -57.6,-39.3 -122,-51.6 -182.3,-41.3 -1.7,-38 -7.7,-75.6 -17.8,-112.2 70.5,7.1 148,-63.7 202.1,-96.1" /><path
         id="path270"
         style="fill:#fabf23;fill-opacity:1;fill-rule:nonzero;stroke:none"
         d="m 14613.1,11988.4 c 47.1,85.6 94.1,171.2 141.2,256.7 22.9,41.6 46.3,84.9 48.7,132.3 1.7,33.5 -10.7,69.3 -34.2,92 -23.5,-8.1 -47.7,-15.2 -73.8,-20.2 -64.5,-12.3 -128.4,-28.2 -192.5,-42.3 -186.8,-41 -373.7,-82 -560.5,-123.1 -218.9,-48.1 -437.8,-96.1 -656.7,-144.2 -2.3,-13.3 -4.5,-26.5 -6.7,-39.8 -173.3,-107.4 -331.6,-243.5 -442.8,-414.9 -55.9,-86.2 -106,-176.7 -150,-270.2 19.8,23.4 40.2,46.2 61.8,67.8 195.9,195.7 460,314 732,365.8 130.9,24.9 267.5,35 396.4,1.6 129,-33.4 250.1,-115.4 306.3,-236.2 51.7,-111 36.2,-235.2 26.3,-353.3 -9.2,-109 -24.9,-217.3 -46.3,-324.6 -4.4,-21.9 -8.7,-43.7 -13.6,-65.5 216.6,47.6 433.3,95.1 649.9,142.7 42.5,9.4 84.9,18.7 127.4,28 -5.7,28.9 -9.4,58.1 -8.2,87.5 1.7,44 14.7,88.7 43.4,122.2 3.8,4.3 7.8,8.6 10.5,13.8 3.8,7.5 4.3,16.3 4.7,24.7 0.1,1.6 0.3,3.1 0.4,4.6 0.5,9.3 1.5,18.4 2.2,27.6 -63,-6.1 -126.1,-11.1 -189.1,-15.5 -10.8,-0.8 -21.7,-1.3 -32.6,-1.1 -15.4,0.2 -30.6,2.1 -44.6,8.3 -45.3,20.3 -61.4,75.4 -72.3,123.9 -22.6,100.9 -45.3,201.8 -67.9,302.6 -7.9,35.3 -15.9,71.3 -13,107.3 4,50.7 29.1,97 53.6,141.5" /><path
         id="path272"
         style="fill:#f47032;fill-opacity:1;fill-rule:nonzero;stroke:none"
         d="m 14195.5,15450.8 c -193.5,57.5 -429.4,-9.8 -529.9,-184.8 -68.5,-119.1 -104,-304.5 -41.9,-432.9 25.5,-52.7 64.3,-93 109.8,-118.6 24.9,-14 51.9,-22.9 79.7,-27.6 60.3,-10.3 124.7,2 182.3,41.3 2.4,1.6 4.8,2.7 7,4.4 21.7,15.7 41.3,35 53.6,58.8 14.7,28.2 18,60.8 20.4,92.5 5.2,70.4 6.6,141.1 4.2,211.7 112,10.5 224.6,14.5 337.2,12.7 13.5,-0.2 27,-0.1 40.6,-0.5 24,178.3 -98.1,294 -263,343" /><path
         id="path274"
         style="fill:#ebdcd7;fill-opacity:1;fill-rule:nonzero;stroke:none"
         d="m 15777.6,14099 c -7.5,14.5 -19,30.9 -35.3,29.7 -4.2,-0.3 -7.8,-2.1 -11.1,-4.5 -6.8,-4.8 -11.7,-12.9 -13.1,-21.3 -2,-12.6 1.6,-25.3 5.2,-37.5 22.9,-78.7 34.4,-169.3 78.7,-239.5 11.4,-18 30.7,-37 50.8,-30 2.5,1 4.7,2.4 6.8,3.9 7.6,5.7 12.4,15.1 13.7,24.7 1.7,12.2 -1.2,24.5 -4.3,36.5 -21.2,82.5 -52,162.5 -91.4,238" /><path
         id="path276"
         style="fill:#ebdcd7;fill-opacity:1;fill-rule:nonzero;stroke:none"
         d="m 15508.9,14722.3 c -19.9,-2.5 -39.3,-17.5 -52.1,-43.6 -40.2,-82.1 -29.1,-178.9 -17.1,-269.5 2.5,-19.4 5.4,-39.6 17,-55.3 13.7,-18.8 38.2,-27 61.6,-24.7 30.2,129.1 26.9,265.7 -9.4,393.1" /><path
         id="path278"
         style="fill:#f9c21d;fill-opacity:1;fill-rule:nonzero;stroke:none"
         d="m 15565.8,14689 c -15.4,25.5 -36.4,35.9 -56.9,33.3 36.3,-127.4 39.6,-264 9.4,-393.1 7.3,0.7 14.6,2.5 21.4,5.3 5,2.1 9.4,5.2 13.8,8.1 20.8,13.8 36.1,35.8 44,59.8 9.6,29.1 10,60.4 8.3,91 -3.4,58.3 -9.1,144.2 -40,195.6" /><path
         id="path280"
         style="fill:#3c312f;fill-opacity:1;fill-rule:nonzero;stroke:none"
         d="m 15388.9,13782.8 c 4.8,-22.2 -9.2,-44.1 -31.3,-48.9 -22.2,-4.9 -44.1,9.1 -49,31.3 -4.8,22.1 9.2,44 31.3,48.9 22.2,4.9 44.1,-9.2 49,-31.3" /><path
         id="path282"
         style="fill:#f47032;fill-opacity:1;fill-rule:nonzero;stroke:none"
         d="m 13198.5,12272.9 -1472,-323.3 -246.9,1124.2 1472,323.4 246.9,-1124.3" /><path
         id="path284"
         style="fill:#ba4617;fill-opacity:1;fill-rule:nonzero;stroke:none"
         d="m 12996.5,13407 -1561.8,-343.1 -59.2,269.4 c -3.7,16.7 6.9,33.2 23.6,36.8 l 1501.4,329.8 c 16.7,3.7 33.2,-6.9 36.9,-23.6 l 59.1,-269.3" /><path
         id="path286"
         style="fill:#c0c3ca;fill-opacity:1;fill-rule:nonzero;stroke:none"
         d="m 13214.7,12028.5 -142.4,216.7 -1216.3,-267.1 16,-72.9 1216.3,267.2 140.5,-208 769.6,169 -14.1,64.2 -769.6,-169.1" /><g
         transform="scale(1.02897)"
         id="g288"><path
           id="path290"
           style="fill:#ed9819;fill-opacity:1;fill-rule:nonzero;stroke:none"
           d="m 16170.4,11774.7 c 4.2,25.4 17.9,48.1 31.4,70.1 32.7,53.5 65.4,107 98.2,160.6 -21.5,-4.1 -42.9,-8.3 -64.1,-12.8 -10.7,-2.3 -21.4,-4.7 -32,-7 -62,-13.8 -124,-29.9 -182.2,-54 10.8,-40.2 21,-80.6 29.2,-121.4 21.3,-106 30.8,-214.4 28.2,-322.6 -0.9,-35.7 -3.3,-71.6 -7.4,-107.3 50.2,28.5 101.9,54.3 154.6,77.5 -16.7,81 -33.3,162.1 -50,243.1 -5,24.3 -10,49.3 -5.9,73.8" /></g><path
         id="path292"
         style="fill:#ed9819;fill-opacity:1;fill-rule:nonzero;stroke:none"
         d="m 15694,13626.4 c -58.9,-32.9 -117.8,-65.7 -176.7,-98.5 -19.2,-10.7 -39.6,-21.5 -60.8,-26.3 14,-28.8 29,-57 44.6,-85 75.9,62.2 159.1,115.3 247.8,157.5 -17.2,18.8 -35.3,36.7 -54.9,52.3" /><path
         id="path294"
         style="fill:#ffffff;fill-opacity:1;fill-rule:nonzero;stroke:none"
         d="m 11118.4,11466.2 c 146.8,40.2 293.9,79 440.9,118.5 l 441.5,116 220.6,59 c 73.5,19.6 147.3,37.9 221.6,54.6 l 111.5,24.3 c 37.3,7.6 74.5,15.7 111.9,22.8 74.7,14.8 149.7,28.6 225.3,39.8 l 1.2,-4.9 c -72.2,-25.1 -145.1,-47.5 -218.1,-69 -36.5,-11 -73.2,-21 -109.8,-31.5 l -110.1,-30.1 c -73.6,-19.5 -147.5,-37.5 -221.7,-54.1 l -222.8,-49.8 -445.1,-101.4 c -148.6,-33 -297,-66.7 -445.7,-99 l -1.2,4.8" /><path
         id="path296"
         style="fill:#ffffff;fill-opacity:1;fill-rule:nonzero;stroke:none"
         d="m 13331.5,11466.2 c 146.8,40.2 293.9,79 440.9,118.5 l 441.5,116 220.6,59 c 73.5,19.6 147.4,37.9 221.6,54.6 l 111.5,24.3 c 37.3,7.6 74.5,15.7 111.9,22.8 74.7,14.8 149.7,28.6 225.3,39.8 l 1.2,-4.9 c -72.2,-25.1 -145.1,-47.5 -218.1,-69 -36.5,-11 -73.2,-21 -109.8,-31.5 l -110.1,-30.1 c -73.5,-19.5 -147.5,-37.5 -221.7,-54.1 l -222.8,-49.8 -445.1,-101.4 c -148.6,-33 -297,-66.7 -445.7,-99 l -1.2,4.8" /><path
         id="path298"
         style="fill:#ffffff;fill-opacity:1;fill-rule:nonzero;stroke:none"
         d="m 11784.9,9988.05 c 146.9,40.15 294,78.95 441,118.45 l 441.5,116 220.6,59 c 73.5,19.7 147.3,37.9 221.6,54.6 l 111.5,24.3 c 37.3,7.6 74.5,15.7 111.9,22.9 74.7,14.7 149.6,28.5 225.2,39.7 l 1.2,-4.9 c -72.1,-25.1 -145,-47.5 -218,-69 -36.5,-11 -73.2,-21 -109.8,-31.5 l -110.1,-30.1 c -73.6,-19.5 -147.5,-37.5 -221.8,-54.1 l -222.7,-49.7 -445.2,-101.5 c -148.5,-33 -296.9,-66.6 -445.7,-99 l -1.2,4.85" /><path
         id="path300"
         style="fill:#ffffff;fill-opacity:1;fill-rule:nonzero;stroke:none"
         d="m 12040,10748.9 c 146.8,40.1 293.9,78.9 440.9,118.5 l 441.5,116 220.6,58.9 c 73.5,19.7 147.3,37.9 221.6,54.6 l 111.5,24.4 c 37.3,7.6 74.5,15.7 111.9,22.8 74.7,14.8 149.7,28.6 225.3,39.7 l 1.2,-4.8 c -72.2,-25.1 -145.1,-47.5 -218.1,-69 -36.5,-11 -73.2,-21.1 -109.8,-31.6 l -110.1,-30 c -73.6,-19.5 -147.5,-37.6 -221.7,-54.1 l -222.8,-49.8 -445.1,-101.4 c -148.6,-33 -297,-66.7 -445.7,-99 l -1.2,4.8" /><g
         transform="scale(1.10945)"
         id="g302"><path
           id="path304"
           style="fill:#be1e2d;fill-opacity:1;fill-rule:nonzero;stroke:none"
           d="m 15714.5,12531.1 c -204.2,0 -369.7,165.6 -369.7,369.8 0,204.1 165.5,369.7 369.7,369.7 204.1,0 369.6,-165.6 369.6,-369.7 0,-204.2 -165.5,-369.8 -369.6,-369.8 z m 0,1014.6 c -323.4,0 -585.6,-262.2 -585.6,-585.6 0,-323.4 585.6,-1111.7 585.6,-1111.7 0,0 585.5,788.3 585.5,1111.7 0,323.4 -262.1,585.6 -585.5,585.6" /></g><g
         transform="scale(1.07812)"
         id="g306"><path
           id="path308"
           style="fill:#be1e2d;fill-opacity:1;fill-rule:nonzero;stroke:none"
           d="m 16257.1,12228.4 c 0,0 1,0.8 2.8,2.3 5.5,4.6 19.1,15.9 40.1,32.8 l -17.5,21.7 c -28.1,-22.8 -43.2,-35.4 -43.3,-35.5 l 17.9,-21.3" /></g><g
         transform="scale(1.38197)"
         id="g310"><path
           id="path312"
           style="fill:#be1e2d;fill-opacity:1;fill-rule:nonzero;stroke:none"
           d="m 12783.6,9620.81 c 20.2,15.76 43.2,33.46 68.6,52.78 l -13.2,17.28 c -25.5,-19.37 -48.5,-37.13 -68.7,-52.96 z m 137.7,104.66 c 22,16.3 45.4,33.35 69.9,51.01 l -12.7,17.61 c -24.6,-17.71 -48,-34.82 -70,-51.18 z m 140.3,101.16 c 22.9,16.1 46.6,32.55 71,49.29 l -12.3,17.91 c -24.4,-16.78 -48.2,-33.29 -71.2,-49.44 z m 142.7,97.68 c 23.5,15.68 47.6,31.52 72.2,47.45 l -11.8,18.22 c -24.7,-15.98 -48.8,-31.88 -72.5,-47.61 z m 145.1,93.89 c 24.1,15.2 48.5,30.4 73.4,45.5 l -11.3,18.5 c -25,-15.2 -49.6,-30.4 -73.7,-45.6 z m 147.6,89.9 c 24.6,14.5 49.5,28.9 74.7,43.2 l -10.7,18.9 c -25.3,-14.4 -50.4,-28.9 -75.1,-43.4 z m 150.2,85.1 c 25.2,13.7 50.5,27.2 76,40.5 l -9.9,19.3 c -25.7,-13.4 -51.2,-27 -76.5,-40.7 z m 153,79.7 c 25.7,12.7 51.7,25.3 77.7,37.5 l -9.2,19.7 c -26.2,-12.3 -52.3,-24.9 -78.2,-37.8 z m 156.4,73.3 c 26.3,11.7 52.8,23 79.3,33.8 l -8.2,20.1 c -26.7,-10.9 -53.4,-22.3 -79.9,-34 z m 159.6,65.5 c 27,10.2 54,19.9 81,29.2 l -7,20.5 c -27.2,-9.3 -54.5,-19.1 -81.7,-29.4 z m 163,55.6 c 27.7,8.4 55.3,16.2 82.8,23.3 l -5.5,21 c -27.7,-7.2 -55.6,-15 -83.6,-23.5 z m 166.6,43.1 c 28.3,6 56.5,11.2 84.4,15.6 l -3.4,21.4 c -28.3,-4.4 -56.9,-9.7 -85.6,-15.8 z m 169.5,26.5 c 28.9,2.8 57.4,4.6 85.5,5.4 l -0.5,21.7 c -28.8,-0.8 -57.8,-2.7 -87.1,-5.5 z m 171.1,4.4 c 28.8,-1.6 57.1,-4.3 85,-8.4 l 3.1,21.5 c -28.5,4.2 -57.5,7 -87,8.5 z m 168.6,-25 c 27.8,-7.1 54.8,-15.6 81.2,-25.7 l 7.8,20.2 c -27.2,10.5 -55.1,19.3 -83.5,26.5 z m 158.5,-61.1 c 24.8,-13.3 48.8,-28.2 72.1,-44.9 l 12.6,17.7 c -24,17.2 -48.9,32.6 -74.5,46.4 z m 137.8,-98.7 c 20.3,-18.9 39.8,-39.4 58.7,-61.6 l 16.5,14 c -19.3,22.9 -39.5,44 -60.4,63.5 z m 110,-129.5 c 15.5,-22.9 30.2,-47.2 44.3,-73 l 19,10.4 c -14.3,26.3 -29.5,51.2 -45.3,74.7 z m 81.9,-149.7 c 11.2,-25.3 21.8,-51.8 31.7,-79.57 l 20.5,7.37 c -10.2,28.2 -21,55.1 -32.3,80.9 z m 58.1,-161.14 c 7.7,-26.67 15,-54.34 21.6,-83.04 l 21.1,4.93 c -6.7,29.06 -14.1,57.1 -21.9,84.17 z m 39.3,-167.23 c 5.5,-28.85 10.5,-57.12 15.1,-84.85 l 21.4,3.55 c -4.6,27.9 -9.7,56.35 -15.3,85.38 z m 28,-170.03 c 4,-29.16 7.4,-57.65 10.3,-85.49 l 21.7,2.27 c -3,28.07 -6.5,56.79 -10.5,86.17 z m 17.9,-171.24 c 2.1,-29.42 3.5,-58.05 4.4,-85.91 l 21.7,0.66 c -0.9,28.15 -2.3,57.07 -4.4,86.77 z m 5.1,-171.86 c -0.4,-29.55 -1.6,-58.13 -3.4,-85.77 l 21.6,-1.43 c 1.9,28.02 3.1,56.97 3.5,86.88 z m -11.6,-171.11 c -3.7,-29.37 -8.2,-57.53 -13.6,-84.53 l 21.3,-4.22 c 5.4,27.52 10.1,56.18 13.9,86.02 z m -33.6,-167.64 c -8.1,-28.45 -17.1,-55.39 -27.1,-80.87 l 20.2,-7.92 c 10.3,26.15 19.5,53.74 27.8,82.84 z m -62.5,-158.32 c -13.7,-26.01 -28.4,-50.13 -44.2,-72.49 l 17.7,-12.5 c 16.3,23.14 31.7,48.07 45.8,74.87 z m -97.7,-138.16 c -19.9,-21.05 -40.9,-39.97 -62.7,-56.91 l 13.3,-17.14 c 22.7,17.61 44.4,37.29 65.1,59.15 z m -133.4,-103.43 c -25,-13.78 -50.7,-25.46 -77.1,-35.16 l 7.5,-20.37 c 27.3,10.08 54.1,22.19 80.1,36.53 z m -158.6,-58.74 c -27.7,-5.98 -55.9,-10.07 -84.1,-12.45 l 1.8,-21.63 c 29.1,2.44 58.2,6.68 86.8,12.86 z m -169.3,-14.5 c -28.5,0.95 -56.9,3.51 -85,7.51 l -3,-21.49 c 28.8,-4.11 58,-6.74 87.3,-7.72 z m -168.7,23.91 c -27.9,6.96 -55.2,15.29 -81.7,24.8 l -7.3,-20.42 c 27,-9.77 55,-18.31 83.8,-25.45 z m -160.4,57.86 c -26.2,12.73 -51.1,26.64 -74.3,41.49 l -11.7,-18.29 c 24,-15.33 49.6,-29.64 76.6,-42.73 z m -142.4,92.04 c -22.5,19.44 -42.2,39.82 -58.4,60.71 l -17.2,-13.34 c 17.3,-22.16 37.9,-43.52 61.3,-63.79 z m -99.8,132.48 c -8.1,21.45 -12.3,42.91 -12.3,64.13 0,5.38 0,10.94 0.1,16.67 l -21.7,0.25 c -0.1,-5.81 -0.1,-11.46 -0.1,-16.92 0,-24.11 4.8,-48.19 13.7,-71.78 z m -9.1,166.9 c 1.5,26.86 3.7,55.66 6.6,85.97 l -21.6,2.06 c -2.9,-30.6 -5.1,-59.66 -6.7,-86.78 z m 16.2,171.67 c 3.7,27.71 7.9,56.22 12.8,85.28 l -21.4,3.59 c -5,-29.34 -9.2,-58.11 -12.9,-86.06 z m 28.5,170.01 c 5.8,27.82 12.1,55.88 19.2,83.99 l -21.1,5.27 c -7.1,-28.43 -13.5,-56.78 -19.3,-84.87 z m 41.9,167 c 8.3,27.46 17.2,54.76 26.9,81.71 l -20.4,7.33 c -9.9,-27.34 -18.9,-55.01 -27.2,-82.81 z m 58.3,161.62 c 11.4,26.48 23.6,52.37 36.7,77.49 l -19.3,10.01 c -13.4,-25.62 -25.7,-52 -37.3,-78.92 z m 79.3,151.61 c 15.5,24.3 32,47.52 49.5,69.42 l -17,13.56 c -18,-22.57 -35,-46.42 -50.8,-71.31 z m 106.5,132.33 c 20.6,19.76 42.2,37.86 65.1,54.04 l -12.5,17.73 c -23.9,-16.86 -46.4,-35.67 -67.6,-56.15 z m 137.8,96.66 c 25,11.87 51.2,21.67 78.9,29.15 l -5.8,20.96 c -28.8,-7.83 -56.3,-18.09 -82.4,-30.51 z m 161.6,44.04 c 16.5,1.55 33.5,2.35 50.8,2.35 11.1,0 22.5,-0.33 34,-1 l 1.2,21.72 c -11.9,0.6 -23.7,1 -35.2,1 -18,0 -35.6,-0.8 -52.8,-2.5 z m 169.1,-9.13 c 26.7,-5.02 54.2,-11.72 82.8,-20.23 l 6.2,20.79 c -29.2,8.73 -57.5,15.62 -85,20.74 z m 163.5,-48.29 c 25.6,-10.05 51.7,-21.46 78.5,-34.3 l 9.4,19.59 c -27.3,13.04 -54,24.66 -79.9,34.91 z M 15462,9861 c 24.2,-13.35 48.9,-27.8 74.1,-43.4 l 11.4,18.48 c -25.5,15.77 -50.5,30.39 -75,43.92 z m 146.3,-90.13 c 23,-15.59 46.5,-32.1 70.3,-49.54 l 12.8,17.53 c -24,17.59 -47.6,34.24 -70.9,49.98 z m 139.1,-101.43 c 22.1,-17.19 44.4,-35.16 67.2,-53.91 l 13.8,16.75 c -22.9,18.88 -45.5,36.96 -67.7,54.28 z m 133,-109.55 c 2,-1.71 4,-3.43 5.9,-5.16 20.1,-17.44 39.3,-34.98 57.6,-52.62 l 15.1,15.63 c -18.6,17.9 -38.1,35.7 -58.4,53.37 -2,1.73 -4,3.46 -6,5.19 z m 123.5,-119.1 c 19.8,-21.54 38.4,-43.22 55.8,-65.01 l 16.9,13.56 c -17.7,22.19 -36.7,44.24 -56.7,66.14 z m 106.7,-133.78 c 16.5,-24.04 31.6,-48.22 45.5,-72.49 l 18.8,10.74 c -14.1,24.81 -29.5,49.48 -46.3,74 z m 84.5,-148.51 c 12.1,-26.29 22.7,-52.68 32,-79.18 l 20.5,7.2 c -9.5,27.13 -20.5,54.15 -32.8,81.03 z m 56.5,-160.98 c 6.9,-27.84 12.4,-55.78 16.6,-83.78 l 21.5,3.2 c -4.3,28.68 -10,57.29 -17.1,85.81 z m 25.2,-168.76 c 1,-17.75 1.5,-35.52 1.5,-53.31 0,-10.7 -0.2,-21.41 -0.5,-32.12 l 21.7,-0.71 c 0.4,10.95 0.5,21.89 0.5,32.83 0,18.19 -0.5,36.36 -1.5,54.52 z m -5.4,-170.62 c -3.2,-28.17 -7.6,-56.36 -13,-84.53 l 21.3,-4.11 c 5.5,28.69 10,57.41 13.3,86.16 z m -32.2,-168 c -7.2,-27.43 -15.5,-54.81 -24.6,-82.14 l 20.6,-6.87 c 9.3,27.75 17.6,55.56 25,83.44 z m -54,-162.76 c -10.5,-26.42 -21.7,-52.77 -33.8,-79.02 l 19.8,-9.02 c 12.1,26.58 23.5,53.25 34.2,80.03 z m -71.3,-156.39 c -13,-25.36 -26.6,-50.61 -40.8,-75.73 l 18.9,-10.7 c 14.3,25.37 28.1,50.89 41.2,76.52 z m -84.7,-149.85 c -15,-24.34 -30.4,-48.53 -46.4,-72.56 l 18.1,-12.01 c 16,24.24 31.7,48.63 46.8,73.18 z m -95.2,-143.61 c -16.6,-23.33 -33.5,-46.48 -50.8,-69.46 l 17.4,-13.04 c 17.4,23.12 34.4,46.45 51.1,69.94 z m -103.5,-137.62 c -17.8,-22.52 -36.1,-44.85 -54.5,-66.96 l 16.7,-13.89 c 18.5,22.23 36.8,44.68 54.8,67.35 z m -110.6,-132.74 c -19,-21.72 -38.2,-43.21 -57.5,-64.45 l 16.1,-14.61 c 19.4,21.35 38.6,42.95 57.7,64.79 z m -116.2,-127.74 c -19.9,-21.02 -39.9,-41.75 -59.9,-62.2 l 15.4,-15.2 c 20.2,20.54 40.3,41.37 60.2,62.48 z m -120.9,-123.33 c -20.7,-20.36 -41.4,-40.41 -62.1,-60.11 l 15,-15.71 c 20.7,19.77 41.5,39.9 62.3,60.36 z m -125.1,-119.25 c -21.4,-19.79 -42.7,-39.19 -63.9,-58.17 l 14.5,-16.16 c 21.3,19.05 42.6,38.52 64.1,58.39 z m -128.6,-115.43 c -22.2,-19.29 -44,-38.08 -65.6,-56.35 l 14,-16.56 c 21.7,18.33 43.6,37.19 65.8,56.54 z m -131.9,-111.82 c -22.9,-18.87 -45.3,-37.08 -67.1,-54.59 l 13.6,-16.92 c 21.9,17.56 44.3,35.83 67.3,54.76 z m -134.9,-108.31 c -23.8,-18.62 -46.7,-36.25 -68.5,-52.83 l 13.2,-17.28 c 21.8,16.63 44.8,34.32 68.7,53.01 z m -137.7,-104.75 c -25.7,-19.04 -49.2,-36.06 -69.9,-50.94 l 12.6,-17.65 c 20.9,14.94 44.4,32.03 70.2,51.13 l -12.9,17.45" /></g><g
         transform="scale(1.24612)"
         id="g314"><path
           id="path316"
           style="fill:#be1e2d;fill-opacity:1;fill-rule:nonzero;stroke:none"
           d="m 16286.3,7426.93 c -12.8,-8.83 -22.7,-15.56 -29.5,-20.07 -3.3,-2.26 -5.8,-3.96 -7.5,-5.1 -1.8,-1.14 -2.6,-1.69 -2.6,-1.69 l 13.3,-20.11 c 0,0.04 14.2,9.37 40,27.15 l -13.7,19.82" /></g><g
         transform="scale(1.21078)"
         id="g318"><path
           id="path320"
           style="fill:#f26522;fill-opacity:1;fill-rule:nonzero;stroke:none"
           d="M 16300,7370.07 15953.1,7762.42 14714.2,6035.51 16300,7370.07" /></g><g
         transform="scale(1.24255)"
         id="g322"><path
           id="path324"
           style="fill:#f26522;fill-opacity:1;fill-rule:nonzero;stroke:none"
           d="m 15968.3,7092.58 -1630.2,-1211.37 1961.9,819.86 -331.7,391.51" /></g><g
         transform="scale(1.21726)"
         id="g326"><path
           id="path328"
           style="fill:#d14f1c;fill-opacity:1;fill-rule:nonzero;stroke:none"
           d="m 16213.2,7330.81 86.8,-90.92 -1664.1,-1236.53 1577.3,1327.45" /></g></g></g></svg>